G04*
G04 #@! TF.GenerationSoftware,Altium Limited,Altium Designer,20.0.2 (26)*
G04*
G04 Layer_Color=0*
%FSLAX25Y25*%
%MOIN*%
G70*
G01*
G75*
%ADD13C,0.00394*%
D13*
X146000Y380532D02*
Y384469D01*
X144032Y382500D02*
X147968D01*
X140500Y365032D02*
Y368969D01*
X138531Y367000D02*
X142469D01*
X126031Y428500D02*
X129969D01*
X128000Y426532D02*
Y430469D01*
X165500Y408532D02*
Y412468D01*
X163531Y410500D02*
X167469D01*
X149031Y440000D02*
X152969D01*
X151000Y438031D02*
Y441968D01*
X162500Y381031D02*
Y384968D01*
X160531Y383000D02*
X164469D01*
X140000Y426532D02*
Y430469D01*
X138031Y428500D02*
X141969D01*
X107500Y404032D02*
Y407969D01*
X105532Y406000D02*
X109468D01*
X128032Y405000D02*
X131968D01*
X130000Y403031D02*
Y406968D01*
X165500Y439532D02*
Y443469D01*
X163531Y441500D02*
X167469D01*
X134031Y445500D02*
X137969D01*
X136000Y443532D02*
Y447469D01*
X125031Y445500D02*
X128969D01*
X127000Y443532D02*
Y447469D01*
X121500Y460532D02*
Y464468D01*
X119532Y462500D02*
X123468D01*
X107500Y461031D02*
Y464968D01*
X105532Y463000D02*
X109468D01*
X108000Y426031D02*
Y429969D01*
X106032Y428000D02*
X109968D01*
X127116Y489032D02*
Y492969D01*
X125147Y491000D02*
X129084D01*
X104532Y445500D02*
X108468D01*
X106500Y443532D02*
Y447469D01*
X106532Y383000D02*
X110468D01*
X108500Y381031D02*
Y384968D01*
M02*
