G04*
G04 #@! TF.GenerationSoftware,Altium Limited,Altium Designer,20.0.2 (26)*
G04*
G04 Layer_Color=32768*
%FSLAX25Y25*%
%MOIN*%
G70*
G01*
G75*
%ADD13C,0.00394*%
%ADD87C,0.00197*%
D13*
X132516Y378532D02*
X134484D01*
Y382469D01*
X132516D02*
X134484D01*
X132516Y378532D02*
Y382469D01*
X164547Y421000D02*
X166713D01*
X165630Y419917D02*
Y422083D01*
X150500Y400417D02*
Y402583D01*
X149417Y401500D02*
X151583D01*
X120031Y340000D02*
X123969D01*
X122000Y338032D02*
Y341968D01*
X165287Y473000D02*
X167453D01*
X166370Y471917D02*
Y474083D01*
X164917Y462000D02*
X167083D01*
X166000Y460917D02*
Y463083D01*
X164417Y451000D02*
X166583D01*
X165500Y449917D02*
Y452083D01*
X148563Y456437D02*
X156437D01*
Y448563D02*
Y456437D01*
X148563Y448563D02*
X156437D01*
X148563D02*
Y456437D01*
Y454468D02*
X150531Y456437D01*
X117917Y432500D02*
X120083D01*
X119000Y431417D02*
Y433583D01*
X138000Y495799D02*
X163000D01*
Y483201D02*
Y495799D01*
X138000Y483201D02*
X163000D01*
X138000D02*
Y495799D01*
X153890Y465079D02*
Y474921D01*
X140110Y465079D02*
X153890D01*
X140110D02*
Y474921D01*
X153890D01*
X126500Y479244D02*
Y481410D01*
X125417Y480327D02*
X127583D01*
X116516Y447469D02*
X118484D01*
X116516Y443532D02*
Y447469D01*
Y443532D02*
X118484D01*
Y447469D01*
X150591Y414500D02*
X152756D01*
X151673Y413417D02*
Y415583D01*
D87*
X161496Y418835D02*
Y423165D01*
X169764Y418835D02*
Y423165D01*
X161496D02*
X169764D01*
X161496Y418835D02*
X169764D01*
X148728Y405043D02*
X152272D01*
X148728Y397957D02*
X152272D01*
Y405043D01*
X148728Y397957D02*
Y405043D01*
X140898Y323124D02*
Y349006D01*
X103102Y323124D02*
X103104Y349006D01*
X103102Y323124D02*
X140898D01*
X103102Y349006D02*
X140898D01*
X162236Y470835D02*
Y475165D01*
X170504Y470835D02*
Y475165D01*
X162236D02*
X170504D01*
X162236Y470835D02*
X170504D01*
X161866Y459835D02*
Y464165D01*
X170134Y459835D02*
Y464165D01*
X161866D02*
X170134D01*
X161866Y459835D02*
X170134D01*
X162547Y449425D02*
Y452575D01*
X168453Y449425D02*
Y452575D01*
X162547D02*
X168453D01*
X162547Y449425D02*
X168453D01*
X172295Y325138D02*
Y527697D01*
Y325138D02*
X286508D01*
Y527697D01*
X172295D02*
X286508D01*
X121953Y430925D02*
Y434075D01*
X116047Y430925D02*
Y434075D01*
Y430925D02*
X121953D01*
X116047Y434075D02*
X121953D01*
X124728Y483870D02*
X128272D01*
X124728Y476784D02*
X128272D01*
Y483870D01*
X124728Y476784D02*
Y483870D01*
X148130Y412728D02*
Y416272D01*
X155217Y412728D02*
Y416272D01*
X148130D02*
X155217D01*
X148130Y412728D02*
X155217D01*
M02*
