G04*
G04 #@! TF.GenerationSoftware,Altium Limited,Altium Designer,20.0.2 (26)*
G04*
G04 Layer_Color=32896*
%FSLAX25Y25*%
%MOIN*%
G70*
G01*
G75*
%ADD12C,0.00787*%
D12*
X134811Y367000D02*
G03*
X146189Y367000I5689J0D01*
G01*
D02*
G03*
X134811Y367000I-5689J0D01*
G01*
X159811Y410500D02*
G03*
X171189Y410500I5689J0D01*
G01*
D02*
G03*
X159811Y410500I-5689J0D01*
G01*
X156811Y383000D02*
G03*
X168189Y383000I5689J0D01*
G01*
D02*
G03*
X156811Y383000I-5689J0D01*
G01*
X101811Y406000D02*
G03*
X113189Y406000I5689J0D01*
G01*
D02*
G03*
X101811Y406000I-5689J0D01*
G01*
X159811Y441500D02*
G03*
X171189Y441500I5689J0D01*
G01*
D02*
G03*
X159811Y441500I-5689J0D01*
G01*
X115811Y462500D02*
G03*
X127189Y462500I5689J0D01*
G01*
D02*
G03*
X115811Y462500I-5689J0D01*
G01*
X101811Y463000D02*
G03*
X113189Y463000I5689J0D01*
G01*
D02*
G03*
X101811Y463000I-5689J0D01*
G01*
X102311Y428000D02*
G03*
X113689Y428000I5689J0D01*
G01*
D02*
G03*
X102311Y428000I-5689J0D01*
G01*
X149445Y380630D02*
Y384370D01*
X142555D02*
X149445D01*
X142555Y380630D02*
Y384370D01*
Y380630D02*
X149445D01*
X126425Y425153D02*
X129575D01*
Y431847D01*
X126425D02*
X129575D01*
X126425Y425153D02*
Y431847D01*
X149130Y443445D02*
X152870D01*
X149130Y436555D02*
Y443445D01*
Y436555D02*
X152870D01*
Y443445D01*
X143347Y426925D02*
Y430075D01*
X136653D02*
X143347D01*
X136653Y426925D02*
Y430075D01*
Y426925D02*
X143347D01*
X120633Y395633D02*
X139367D01*
Y414367D01*
X120633D02*
X139367D01*
X120633Y395633D02*
Y414367D01*
X134130Y448945D02*
X137870D01*
X134130Y442055D02*
Y448945D01*
Y442055D02*
X137870D01*
Y448945D01*
X125130Y442055D02*
X128870D01*
Y448945D01*
X125130D02*
X128870D01*
X125130Y442055D02*
Y448945D01*
X123036Y488889D02*
Y493111D01*
Y488889D02*
X131196D01*
Y493111D01*
X123036D02*
X131196D01*
X104389Y441420D02*
X108611D01*
Y449580D01*
X104389D02*
X108611D01*
X104389Y441420D02*
Y449580D01*
X104169Y374732D02*
X112831D01*
Y391268D01*
X104169D02*
X112831D01*
X104169Y374732D02*
Y391268D01*
M02*
