G04*
G04 #@! TF.GenerationSoftware,Altium Limited,Altium Designer,20.0.2 (26)*
G04*
G04 Layer_Color=16711935*
%FSLAX25Y25*%
%MOIN*%
G70*
G01*
G75*
%ADD10C,0.00591*%
%ADD12C,0.00787*%
%ADD13C,0.00394*%
%ADD14C,0.00500*%
%ADD15C,0.01000*%
D10*
X145795Y367000D02*
G03*
X145795Y367000I-5295J0D01*
G01*
X170795Y410500D02*
G03*
X170795Y410500I-5295J0D01*
G01*
X167795Y383000D02*
G03*
X167795Y383000I-5295J0D01*
G01*
X112795Y406000D02*
G03*
X112795Y406000I-5295J0D01*
G01*
X170795Y441500D02*
G03*
X170795Y441500I-5295J0D01*
G01*
X126795Y462500D02*
G03*
X126795Y462500I-5295J0D01*
G01*
X112795Y463000D02*
G03*
X112795Y463000I-5295J0D01*
G01*
X113295Y428000D02*
G03*
X113295Y428000I-5295J0D01*
G01*
D12*
X171429Y487500D02*
G03*
X171429Y487500I-394J0D01*
G01*
X148067Y381417D02*
Y383583D01*
X143933D02*
X148067D01*
X143933Y381417D02*
Y383583D01*
Y381417D02*
X148067D01*
X126917Y426335D02*
X129083D01*
Y430665D01*
X126917D02*
X129083D01*
X126917Y426335D02*
Y430665D01*
X149917Y442067D02*
X152083D01*
X149917Y437933D02*
Y442067D01*
Y437933D02*
X152083D01*
Y442067D01*
X142067Y427417D02*
Y429583D01*
X137933D02*
X142067D01*
X137933Y427417D02*
Y429583D01*
Y427417D02*
X142067D01*
X122126Y397126D02*
X137874D01*
Y412874D01*
X122126D02*
X137874D01*
X122126Y397126D02*
Y412874D01*
X134917Y447567D02*
X137083D01*
X134917Y443433D02*
Y447567D01*
Y443433D02*
X137083D01*
Y447567D01*
X125917Y443433D02*
X128083D01*
Y447567D01*
X125917D02*
X128083D01*
X125917Y443433D02*
Y447567D01*
X125147Y490016D02*
Y491984D01*
Y490016D02*
X129084D01*
Y491984D01*
X125147D02*
X129084D01*
X105516Y443532D02*
X107484D01*
Y447469D01*
X105516D02*
X107484D01*
X105516Y443532D02*
Y447469D01*
X104563Y375126D02*
X112437D01*
Y390874D01*
X104563D02*
X112437D01*
X104563Y375126D02*
Y390874D01*
D13*
X163563Y419917D02*
Y422083D01*
X167697Y419917D02*
Y422083D01*
X163563D02*
X167697D01*
X163563Y419917D02*
X167697D01*
X149417Y403567D02*
X151583D01*
X149417Y399433D02*
X151583D01*
Y403567D01*
X149417Y399433D02*
Y403567D01*
X107236Y325876D02*
Y345562D01*
Y325876D02*
X136764Y325876D01*
Y345562D01*
X107236D02*
X136764D01*
X164303Y471917D02*
Y474083D01*
X168437Y471917D02*
Y474083D01*
X164303D02*
X168437D01*
X164303Y471917D02*
X168437D01*
X163933Y460917D02*
Y463083D01*
X168067Y460917D02*
Y463083D01*
X163933D02*
X168067D01*
X163933Y460917D02*
X168067D01*
X163433Y449917D02*
Y452083D01*
X167567Y449917D02*
Y452083D01*
X163433D02*
X167567D01*
X163433Y449917D02*
X167567D01*
X121067Y431417D02*
Y433583D01*
X116933Y431417D02*
Y433583D01*
Y431417D02*
X121067D01*
X116933Y433583D02*
X121067D01*
X125417Y482394D02*
X127583D01*
X125417Y478260D02*
X127583D01*
Y482394D01*
X125417Y478260D02*
Y482394D01*
X149606Y413417D02*
Y415583D01*
X153740Y413417D02*
Y415583D01*
X149606D02*
X153740D01*
X149606Y413417D02*
X153740D01*
D14*
X173280Y526713D02*
X216858D01*
X243280D01*
X285524D01*
X173280Y326122D02*
Y526713D01*
X285524Y326122D02*
Y526713D01*
X173280Y326122D02*
X194421D01*
X264067D01*
X285524D01*
X194421D02*
Y351673D01*
Y401398D01*
X264067D01*
Y351673D02*
Y401398D01*
Y326122D02*
Y351673D01*
X194421D02*
X264067D01*
X243280Y511398D02*
Y526713D01*
X216858Y511398D02*
X243280D01*
X216858D02*
Y526713D01*
D15*
X118874Y477004D02*
Y493736D01*
X103126D02*
X118874D01*
X103126Y477004D02*
Y493736D01*
Y477004D02*
X118874D01*
M02*
