G04*
G04 #@! TF.GenerationSoftware,Altium Limited,Altium Designer,20.0.2 (26)*
G04*
G04 Layer_Color=8388736*
%FSLAX25Y25*%
%MOIN*%
G70*
G01*
G75*
%ADD12C,0.00787*%
G36*
X144886Y382496D02*
X144921D01*
X144959Y382492D01*
X145006Y382485D01*
X145052Y382481D01*
X145159Y382458D01*
X145270Y382431D01*
X145378Y382389D01*
X145432Y382366D01*
X145482Y382335D01*
X145485Y382331D01*
X145493Y382327D01*
X145505Y382316D01*
X145524Y382304D01*
X145570Y382266D01*
X145624Y382212D01*
X145689Y382147D01*
X145750Y382062D01*
X145816Y381966D01*
X145870Y381855D01*
Y381851D01*
X145873Y381840D01*
X145881Y381824D01*
X145889Y381801D01*
X145900Y381770D01*
X145912Y381736D01*
X145923Y381698D01*
X145935Y381651D01*
X145946Y381605D01*
X145958Y381552D01*
X145981Y381436D01*
X145996Y381313D01*
X146000Y381179D01*
Y381175D01*
Y381160D01*
Y381141D01*
X145996Y381114D01*
Y381079D01*
X145992Y381037D01*
X145989Y380995D01*
X145981Y380945D01*
X145962Y380837D01*
X145939Y380722D01*
X145900Y380603D01*
X145850Y380492D01*
Y380488D01*
X145843Y380480D01*
X145835Y380465D01*
X145823Y380442D01*
X145808Y380419D01*
X145789Y380392D01*
X145739Y380327D01*
X145681Y380254D01*
X145608Y380181D01*
X145520Y380108D01*
X145424Y380046D01*
X145420D01*
X145413Y380039D01*
X145397Y380031D01*
X145374Y380023D01*
X145351Y380012D01*
X145320Y379996D01*
X145282Y379985D01*
X145244Y379970D01*
X145201Y379954D01*
X145155Y379943D01*
X145052Y379916D01*
X144936Y379900D01*
X144814Y379893D01*
X144775D01*
X144748Y379896D01*
X144718Y379900D01*
X144679Y379904D01*
X144637Y379908D01*
X144591Y379916D01*
X144491Y379939D01*
X144383Y379973D01*
X144330Y379996D01*
X144276Y380023D01*
X144226Y380054D01*
X144176Y380088D01*
X144172Y380092D01*
X144165Y380096D01*
X144153Y380108D01*
X144134Y380123D01*
X144115Y380142D01*
X144088Y380169D01*
X144061Y380196D01*
X144034Y380227D01*
X144003Y380265D01*
X143976Y380304D01*
X143946Y380350D01*
X143915Y380399D01*
X143888Y380450D01*
X143861Y380507D01*
X143815Y380630D01*
X144145Y380707D01*
Y380703D01*
X144149Y380695D01*
X144153Y380680D01*
X144161Y380661D01*
X144172Y380638D01*
X144184Y380611D01*
X144211Y380553D01*
X144245Y380488D01*
X144291Y380419D01*
X144341Y380357D01*
X144403Y380304D01*
X144410Y380300D01*
X144433Y380284D01*
X144468Y380265D01*
X144518Y380238D01*
X144575Y380215D01*
X144648Y380196D01*
X144729Y380181D01*
X144821Y380177D01*
X144848D01*
X144867Y380181D01*
X144894D01*
X144921Y380185D01*
X144990Y380196D01*
X145067Y380211D01*
X145148Y380238D01*
X145228Y380273D01*
X145305Y380319D01*
X145309D01*
X145313Y380327D01*
X145336Y380346D01*
X145370Y380377D01*
X145413Y380419D01*
X145455Y380472D01*
X145501Y380534D01*
X145543Y380611D01*
X145578Y380695D01*
Y380699D01*
X145581Y380707D01*
X145585Y380718D01*
X145589Y380737D01*
X145597Y380757D01*
X145601Y380784D01*
X145616Y380845D01*
X145631Y380918D01*
X145643Y380999D01*
X145651Y381087D01*
X145654Y381179D01*
Y381183D01*
Y381194D01*
Y381210D01*
Y381233D01*
X145651Y381260D01*
Y381294D01*
X145647Y381329D01*
X145643Y381367D01*
X145631Y381455D01*
X145616Y381552D01*
X145593Y381648D01*
X145562Y381740D01*
Y381744D01*
X145558Y381751D01*
X145551Y381763D01*
X145543Y381778D01*
X145524Y381824D01*
X145493Y381874D01*
X145451Y381936D01*
X145401Y381993D01*
X145343Y382051D01*
X145274Y382101D01*
X145270D01*
X145267Y382104D01*
X145255Y382112D01*
X145240Y382120D01*
X145197Y382135D01*
X145144Y382158D01*
X145082Y382177D01*
X145009Y382197D01*
X144929Y382212D01*
X144844Y382216D01*
X144817D01*
X144798Y382212D01*
X144775D01*
X144744Y382208D01*
X144679Y382197D01*
X144606Y382177D01*
X144526Y382147D01*
X144449Y382108D01*
X144372Y382055D01*
X144368Y382051D01*
X144364Y382047D01*
X144341Y382024D01*
X144307Y381985D01*
X144264Y381936D01*
X144222Y381866D01*
X144176Y381786D01*
X144138Y381686D01*
X144107Y381575D01*
X143773Y381659D01*
Y381663D01*
X143777Y381678D01*
X143784Y381698D01*
X143792Y381728D01*
X143807Y381759D01*
X143823Y381801D01*
X143838Y381843D01*
X143861Y381890D01*
X143911Y381993D01*
X143980Y382097D01*
X144057Y382197D01*
X144103Y382243D01*
X144153Y382285D01*
X144157Y382289D01*
X144165Y382293D01*
X144180Y382304D01*
X144203Y382319D01*
X144230Y382335D01*
X144261Y382354D01*
X144295Y382373D01*
X144337Y382393D01*
X144383Y382412D01*
X144433Y382431D01*
X144491Y382450D01*
X144548Y382466D01*
X144675Y382492D01*
X144744Y382496D01*
X144817Y382500D01*
X144856D01*
X144886Y382496D01*
D02*
G37*
G36*
X143116Y382454D02*
Y382442D01*
Y382427D01*
X143112Y382404D01*
Y382377D01*
X143108Y382343D01*
X143105Y382300D01*
X143101Y382258D01*
X143093Y382208D01*
X143086Y382151D01*
X143078Y382093D01*
X143066Y382032D01*
X143055Y381962D01*
X143039Y381893D01*
X143001Y381740D01*
Y381736D01*
X142997Y381720D01*
X142990Y381698D01*
X142982Y381667D01*
X142970Y381628D01*
X142955Y381586D01*
X142940Y381536D01*
X142920Y381479D01*
X142897Y381421D01*
X142874Y381356D01*
X142821Y381218D01*
X142755Y381071D01*
X142682Y380926D01*
X142678Y380922D01*
X142671Y380906D01*
X142659Y380887D01*
X142644Y380860D01*
X142625Y380826D01*
X142602Y380787D01*
X142575Y380745D01*
X142548Y380695D01*
X142479Y380592D01*
X142402Y380480D01*
X142321Y380369D01*
X142233Y380261D01*
X143470D01*
Y379966D01*
X141838D01*
Y380207D01*
X141841Y380211D01*
X141849Y380219D01*
X141860Y380234D01*
X141880Y380254D01*
X141899Y380280D01*
X141926Y380311D01*
X141956Y380350D01*
X141987Y380388D01*
X142022Y380434D01*
X142060Y380488D01*
X142102Y380542D01*
X142141Y380603D01*
X142183Y380668D01*
X142229Y380737D01*
X142271Y380814D01*
X142317Y380891D01*
X142321Y380895D01*
X142329Y380910D01*
X142341Y380933D01*
X142356Y380964D01*
X142375Y381002D01*
X142398Y381048D01*
X142425Y381102D01*
X142452Y381160D01*
X142479Y381221D01*
X142509Y381290D01*
X142540Y381363D01*
X142571Y381440D01*
X142629Y381598D01*
X142682Y381767D01*
Y381770D01*
X142686Y381782D01*
X142690Y381797D01*
X142698Y381820D01*
X142705Y381851D01*
X142713Y381886D01*
X142721Y381928D01*
X142732Y381970D01*
X142740Y382020D01*
X142751Y382074D01*
X142771Y382189D01*
X142786Y382319D01*
X142798Y382458D01*
X143116D01*
Y382454D01*
D02*
G37*
G36*
X141890Y367845D02*
Y367841D01*
Y367829D01*
Y367814D01*
Y367791D01*
X141886Y367764D01*
Y367733D01*
X141882Y367664D01*
X141871Y367584D01*
X141859Y367503D01*
X141840Y367422D01*
X141813Y367353D01*
X141809Y367346D01*
X141798Y367326D01*
X141779Y367296D01*
X141756Y367257D01*
X141721Y367211D01*
X141679Y367169D01*
X141625Y367127D01*
X141568Y367088D01*
X141560Y367084D01*
X141537Y367073D01*
X141502Y367061D01*
X141456Y367046D01*
X141399Y367027D01*
X141333Y367015D01*
X141256Y367004D01*
X141176Y367000D01*
X141145D01*
X141122Y367004D01*
X141095Y367008D01*
X141061Y367011D01*
X140988Y367023D01*
X140907Y367046D01*
X140823Y367081D01*
X140780Y367100D01*
X140742Y367127D01*
X140703Y367154D01*
X140669Y367188D01*
Y367192D01*
X140661Y367196D01*
X140654Y367207D01*
X140642Y367223D01*
X140627Y367246D01*
X140615Y367269D01*
X140596Y367300D01*
X140581Y367330D01*
X140565Y367369D01*
X140550Y367411D01*
X140534Y367457D01*
X140523Y367511D01*
X140512Y367564D01*
X140504Y367626D01*
X140500Y367687D01*
Y367756D01*
X140799Y367799D01*
Y367795D01*
Y367787D01*
Y367772D01*
X140803Y367753D01*
Y367730D01*
X140807Y367703D01*
X140819Y367641D01*
X140830Y367572D01*
X140849Y367507D01*
X140876Y367449D01*
X140892Y367422D01*
X140907Y367399D01*
X140911Y367395D01*
X140926Y367384D01*
X140945Y367365D01*
X140976Y367349D01*
X141015Y367330D01*
X141061Y367311D01*
X141114Y367300D01*
X141176Y367296D01*
X141199D01*
X141222Y367300D01*
X141249Y367303D01*
X141283Y367311D01*
X141322Y367319D01*
X141356Y367334D01*
X141391Y367353D01*
X141395Y367357D01*
X141406Y367365D01*
X141422Y367376D01*
X141441Y367395D01*
X141464Y367415D01*
X141483Y367442D01*
X141502Y367472D01*
X141518Y367507D01*
Y367511D01*
X141525Y367526D01*
X141529Y367549D01*
X141537Y367584D01*
X141544Y367630D01*
X141548Y367684D01*
X141556Y367749D01*
Y367826D01*
Y369565D01*
X141890D01*
Y367845D01*
D02*
G37*
G36*
X143610Y367929D02*
X143952D01*
Y367645D01*
X143610D01*
Y367042D01*
X143299D01*
Y367645D01*
X142205D01*
Y367929D01*
X143357Y369561D01*
X143610D01*
Y367929D01*
D02*
G37*
G36*
X126958Y447969D02*
X126954D01*
X126939D01*
X126916D01*
X126889Y447973D01*
X126858Y447977D01*
X126823Y447981D01*
X126785Y447992D01*
X126747Y448004D01*
X126743D01*
X126739Y448007D01*
X126716Y448015D01*
X126685Y448031D01*
X126639Y448054D01*
X126589Y448080D01*
X126532Y448119D01*
X126474Y448157D01*
X126412Y448207D01*
X126409D01*
X126405Y448215D01*
X126382Y448234D01*
X126347Y448265D01*
X126301Y448311D01*
X126247Y448368D01*
X126182Y448438D01*
X126109Y448522D01*
X126029Y448614D01*
X126025Y448618D01*
X126013Y448633D01*
X125998Y448653D01*
X125971Y448679D01*
X125944Y448714D01*
X125909Y448752D01*
X125837Y448837D01*
X125748Y448929D01*
X125660Y449021D01*
X125618Y449067D01*
X125575Y449106D01*
X125533Y449140D01*
X125495Y449171D01*
X125491D01*
X125487Y449179D01*
X125476Y449186D01*
X125460Y449194D01*
X125422Y449217D01*
X125372Y449244D01*
X125314Y449271D01*
X125253Y449294D01*
X125184Y449309D01*
X125118Y449317D01*
X125115D01*
X125111D01*
X125088Y449313D01*
X125053Y449309D01*
X125011Y449302D01*
X124961Y449282D01*
X124911Y449259D01*
X124857Y449229D01*
X124807Y449183D01*
X124803Y449175D01*
X124788Y449159D01*
X124769Y449129D01*
X124742Y449090D01*
X124719Y449040D01*
X124700Y448983D01*
X124685Y448914D01*
X124681Y448837D01*
Y448814D01*
X124685Y448799D01*
X124688Y448760D01*
X124696Y448710D01*
X124715Y448653D01*
X124738Y448591D01*
X124773Y448534D01*
X124819Y448480D01*
X124827Y448476D01*
X124842Y448461D01*
X124873Y448438D01*
X124915Y448415D01*
X124969Y448388D01*
X125030Y448368D01*
X125103Y448353D01*
X125188Y448345D01*
X125153Y448027D01*
X125149D01*
X125138D01*
X125118Y448031D01*
X125095Y448034D01*
X125065Y448042D01*
X125030Y448046D01*
X124953Y448069D01*
X124865Y448100D01*
X124777Y448142D01*
X124688Y448200D01*
X124650Y448230D01*
X124612Y448269D01*
X124608Y448272D01*
X124604Y448280D01*
X124592Y448292D01*
X124581Y448307D01*
X124569Y448330D01*
X124550Y448357D01*
X124535Y448388D01*
X124516Y448422D01*
X124500Y448461D01*
X124481Y448503D01*
X124466Y448553D01*
X124454Y448603D01*
X124431Y448718D01*
X124427Y448779D01*
X124423Y448845D01*
Y448879D01*
X124427Y448906D01*
X124431Y448937D01*
X124435Y448971D01*
X124439Y449010D01*
X124450Y449052D01*
X124473Y449144D01*
X124508Y449240D01*
X124531Y449290D01*
X124558Y449336D01*
X124592Y449378D01*
X124627Y449421D01*
X124631Y449424D01*
X124635Y449428D01*
X124646Y449440D01*
X124662Y449455D01*
X124685Y449471D01*
X124707Y449490D01*
X124765Y449528D01*
X124838Y449567D01*
X124923Y449601D01*
X125019Y449628D01*
X125072Y449632D01*
X125126Y449636D01*
X125134D01*
X125153D01*
X125184Y449632D01*
X125222Y449628D01*
X125268Y449620D01*
X125318Y449609D01*
X125372Y449593D01*
X125426Y449570D01*
X125433Y449567D01*
X125452Y449559D01*
X125479Y449544D01*
X125518Y449520D01*
X125564Y449494D01*
X125618Y449459D01*
X125671Y449413D01*
X125733Y449363D01*
X125741Y449355D01*
X125764Y449336D01*
X125798Y449302D01*
X125821Y449278D01*
X125848Y449252D01*
X125879Y449221D01*
X125913Y449183D01*
X125948Y449144D01*
X125990Y449102D01*
X126032Y449056D01*
X126078Y449002D01*
X126125Y448948D01*
X126178Y448887D01*
X126182Y448883D01*
X126190Y448875D01*
X126201Y448860D01*
X126217Y448841D01*
X126255Y448795D01*
X126305Y448737D01*
X126359Y448679D01*
X126412Y448618D01*
X126459Y448568D01*
X126478Y448549D01*
X126497Y448530D01*
X126501Y448526D01*
X126512Y448518D01*
X126528Y448503D01*
X126551Y448484D01*
X126601Y448441D01*
X126662Y448399D01*
Y449640D01*
X126958D01*
Y447969D01*
D02*
G37*
G36*
X126178Y447723D02*
X126198Y447716D01*
X126228Y447708D01*
X126259Y447693D01*
X126301Y447677D01*
X126343Y447662D01*
X126390Y447639D01*
X126493Y447589D01*
X126597Y447520D01*
X126697Y447443D01*
X126743Y447397D01*
X126785Y447347D01*
X126789Y447343D01*
X126793Y447335D01*
X126804Y447320D01*
X126820Y447297D01*
X126835Y447270D01*
X126854Y447239D01*
X126873Y447205D01*
X126892Y447163D01*
X126912Y447117D01*
X126931Y447067D01*
X126950Y447009D01*
X126965Y446951D01*
X126992Y446825D01*
X126996Y446756D01*
X127000Y446683D01*
Y446644D01*
X126996Y446614D01*
Y446579D01*
X126992Y446541D01*
X126985Y446494D01*
X126981Y446448D01*
X126958Y446341D01*
X126931Y446230D01*
X126889Y446122D01*
X126866Y446068D01*
X126835Y446018D01*
X126831Y446014D01*
X126827Y446007D01*
X126816Y445995D01*
X126804Y445976D01*
X126766Y445930D01*
X126712Y445876D01*
X126647Y445811D01*
X126562Y445750D01*
X126466Y445684D01*
X126355Y445631D01*
X126351D01*
X126340Y445627D01*
X126324Y445619D01*
X126301Y445611D01*
X126270Y445600D01*
X126236Y445588D01*
X126198Y445577D01*
X126151Y445565D01*
X126105Y445554D01*
X126051Y445542D01*
X125936Y445519D01*
X125813Y445504D01*
X125679Y445500D01*
X125675D01*
X125660D01*
X125641D01*
X125614Y445504D01*
X125579D01*
X125537Y445508D01*
X125495Y445511D01*
X125445Y445519D01*
X125337Y445538D01*
X125222Y445561D01*
X125103Y445600D01*
X124992Y445650D01*
X124988D01*
X124980Y445657D01*
X124965Y445665D01*
X124942Y445677D01*
X124919Y445692D01*
X124892Y445711D01*
X124827Y445761D01*
X124754Y445819D01*
X124681Y445892D01*
X124608Y445980D01*
X124546Y446076D01*
Y446080D01*
X124539Y446088D01*
X124531Y446103D01*
X124523Y446126D01*
X124512Y446149D01*
X124496Y446180D01*
X124485Y446218D01*
X124469Y446256D01*
X124454Y446299D01*
X124443Y446345D01*
X124416Y446448D01*
X124400Y446564D01*
X124393Y446687D01*
Y446725D01*
X124397Y446752D01*
X124400Y446782D01*
X124404Y446821D01*
X124408Y446863D01*
X124416Y446909D01*
X124439Y447009D01*
X124473Y447117D01*
X124496Y447170D01*
X124523Y447224D01*
X124554Y447274D01*
X124589Y447324D01*
X124592Y447328D01*
X124596Y447335D01*
X124608Y447347D01*
X124623Y447366D01*
X124642Y447385D01*
X124669Y447412D01*
X124696Y447439D01*
X124727Y447466D01*
X124765Y447497D01*
X124803Y447524D01*
X124850Y447554D01*
X124899Y447585D01*
X124950Y447612D01*
X125007Y447639D01*
X125130Y447685D01*
X125207Y447355D01*
X125203D01*
X125195Y447351D01*
X125180Y447347D01*
X125161Y447339D01*
X125138Y447328D01*
X125111Y447316D01*
X125053Y447289D01*
X124988Y447255D01*
X124919Y447209D01*
X124857Y447159D01*
X124803Y447097D01*
X124800Y447090D01*
X124784Y447067D01*
X124765Y447032D01*
X124738Y446982D01*
X124715Y446925D01*
X124696Y446852D01*
X124681Y446771D01*
X124677Y446679D01*
Y446652D01*
X124681Y446633D01*
Y446606D01*
X124685Y446579D01*
X124696Y446510D01*
X124711Y446433D01*
X124738Y446352D01*
X124773Y446272D01*
X124819Y446195D01*
Y446191D01*
X124827Y446187D01*
X124846Y446164D01*
X124876Y446130D01*
X124919Y446088D01*
X124972Y446045D01*
X125034Y445999D01*
X125111Y445957D01*
X125195Y445922D01*
X125199D01*
X125207Y445919D01*
X125218Y445915D01*
X125238Y445911D01*
X125257Y445903D01*
X125284Y445899D01*
X125345Y445884D01*
X125418Y445869D01*
X125499Y445857D01*
X125587Y445849D01*
X125679Y445846D01*
X125683D01*
X125694D01*
X125710D01*
X125733D01*
X125760Y445849D01*
X125794D01*
X125829Y445853D01*
X125867Y445857D01*
X125955Y445869D01*
X126051Y445884D01*
X126148Y445907D01*
X126240Y445938D01*
X126244D01*
X126251Y445942D01*
X126263Y445949D01*
X126278Y445957D01*
X126324Y445976D01*
X126374Y446007D01*
X126435Y446049D01*
X126493Y446099D01*
X126551Y446157D01*
X126601Y446226D01*
Y446230D01*
X126604Y446233D01*
X126612Y446245D01*
X126620Y446260D01*
X126635Y446303D01*
X126658Y446356D01*
X126678Y446418D01*
X126697Y446491D01*
X126712Y446571D01*
X126716Y446656D01*
Y446683D01*
X126712Y446702D01*
Y446725D01*
X126708Y446756D01*
X126697Y446821D01*
X126678Y446894D01*
X126647Y446975D01*
X126608Y447051D01*
X126555Y447128D01*
X126551Y447132D01*
X126547Y447136D01*
X126524Y447159D01*
X126486Y447193D01*
X126435Y447236D01*
X126366Y447278D01*
X126286Y447324D01*
X126186Y447362D01*
X126075Y447393D01*
X126159Y447727D01*
X126163D01*
X126178Y447723D01*
D02*
G37*
G36*
X137386Y445496D02*
X137421D01*
X137463Y445492D01*
X137505Y445489D01*
X137555Y445481D01*
X137663Y445462D01*
X137778Y445439D01*
X137897Y445400D01*
X138008Y445350D01*
X138012D01*
X138020Y445343D01*
X138035Y445335D01*
X138058Y445323D01*
X138081Y445308D01*
X138108Y445289D01*
X138173Y445239D01*
X138246Y445181D01*
X138319Y445108D01*
X138392Y445020D01*
X138454Y444924D01*
Y444920D01*
X138461Y444912D01*
X138469Y444897D01*
X138477Y444874D01*
X138488Y444851D01*
X138504Y444820D01*
X138515Y444782D01*
X138531Y444743D01*
X138546Y444701D01*
X138557Y444655D01*
X138584Y444552D01*
X138600Y444436D01*
X138607Y444313D01*
Y444275D01*
X138603Y444248D01*
X138600Y444217D01*
X138596Y444179D01*
X138592Y444137D01*
X138584Y444091D01*
X138561Y443991D01*
X138527Y443883D01*
X138504Y443830D01*
X138477Y443776D01*
X138446Y443726D01*
X138411Y443676D01*
X138408Y443672D01*
X138404Y443665D01*
X138392Y443653D01*
X138377Y443634D01*
X138358Y443615D01*
X138331Y443588D01*
X138304Y443561D01*
X138273Y443534D01*
X138235Y443503D01*
X138196Y443476D01*
X138150Y443446D01*
X138100Y443415D01*
X138050Y443388D01*
X137993Y443361D01*
X137870Y443315D01*
X137793Y443645D01*
X137797D01*
X137805Y443649D01*
X137820Y443653D01*
X137839Y443661D01*
X137862Y443672D01*
X137889Y443684D01*
X137947Y443711D01*
X138012Y443745D01*
X138081Y443791D01*
X138143Y443841D01*
X138196Y443903D01*
X138200Y443910D01*
X138216Y443933D01*
X138235Y443968D01*
X138262Y444018D01*
X138285Y444075D01*
X138304Y444148D01*
X138319Y444229D01*
X138323Y444321D01*
Y444348D01*
X138319Y444367D01*
Y444394D01*
X138315Y444421D01*
X138304Y444490D01*
X138289Y444567D01*
X138262Y444648D01*
X138227Y444728D01*
X138181Y444805D01*
Y444809D01*
X138173Y444813D01*
X138154Y444836D01*
X138124Y444870D01*
X138081Y444912D01*
X138028Y444955D01*
X137966Y445001D01*
X137889Y445043D01*
X137805Y445078D01*
X137801D01*
X137793Y445082D01*
X137782Y445085D01*
X137762Y445089D01*
X137743Y445097D01*
X137716Y445101D01*
X137655Y445116D01*
X137582Y445131D01*
X137501Y445143D01*
X137413Y445151D01*
X137321Y445154D01*
X137317D01*
X137305D01*
X137290D01*
X137267D01*
X137240Y445151D01*
X137206D01*
X137171Y445147D01*
X137133Y445143D01*
X137044Y445131D01*
X136948Y445116D01*
X136852Y445093D01*
X136760Y445062D01*
X136756D01*
X136749Y445058D01*
X136737Y445051D01*
X136722Y445043D01*
X136676Y445024D01*
X136626Y444993D01*
X136564Y444951D01*
X136507Y444901D01*
X136449Y444843D01*
X136399Y444774D01*
Y444770D01*
X136396Y444767D01*
X136388Y444755D01*
X136380Y444740D01*
X136365Y444698D01*
X136342Y444644D01*
X136322Y444582D01*
X136303Y444509D01*
X136288Y444429D01*
X136284Y444344D01*
Y444317D01*
X136288Y444298D01*
Y444275D01*
X136292Y444244D01*
X136303Y444179D01*
X136322Y444106D01*
X136353Y444026D01*
X136392Y443949D01*
X136445Y443872D01*
X136449Y443868D01*
X136453Y443864D01*
X136476Y443841D01*
X136514Y443807D01*
X136564Y443764D01*
X136634Y443722D01*
X136714Y443676D01*
X136814Y443638D01*
X136925Y443607D01*
X136841Y443273D01*
X136837D01*
X136822Y443277D01*
X136802Y443284D01*
X136772Y443292D01*
X136741Y443307D01*
X136699Y443323D01*
X136657Y443338D01*
X136610Y443361D01*
X136507Y443411D01*
X136403Y443480D01*
X136303Y443557D01*
X136257Y443603D01*
X136215Y443653D01*
X136211Y443657D01*
X136207Y443665D01*
X136196Y443680D01*
X136180Y443703D01*
X136165Y443730D01*
X136146Y443760D01*
X136127Y443795D01*
X136108Y443837D01*
X136088Y443883D01*
X136069Y443933D01*
X136050Y443991D01*
X136035Y444049D01*
X136008Y444175D01*
X136004Y444244D01*
X136000Y444317D01*
Y444356D01*
X136004Y444386D01*
Y444421D01*
X136008Y444459D01*
X136015Y444506D01*
X136019Y444552D01*
X136042Y444659D01*
X136069Y444770D01*
X136111Y444878D01*
X136134Y444932D01*
X136165Y444982D01*
X136169Y444985D01*
X136173Y444993D01*
X136184Y445005D01*
X136196Y445024D01*
X136234Y445070D01*
X136288Y445124D01*
X136353Y445189D01*
X136438Y445250D01*
X136534Y445316D01*
X136645Y445369D01*
X136649D01*
X136660Y445373D01*
X136676Y445381D01*
X136699Y445389D01*
X136730Y445400D01*
X136764Y445412D01*
X136802Y445423D01*
X136849Y445435D01*
X136895Y445446D01*
X136948Y445458D01*
X137064Y445481D01*
X137187Y445496D01*
X137321Y445500D01*
X137325D01*
X137340D01*
X137359D01*
X137386Y445496D01*
D02*
G37*
G36*
X137340Y443000D02*
X137401Y442996D01*
X137471Y442989D01*
X137548Y442981D01*
X137628Y442970D01*
X137716Y442958D01*
X137805Y442939D01*
X137893Y442916D01*
X137978Y442889D01*
X138066Y442858D01*
X138143Y442824D01*
X138219Y442781D01*
X138285Y442735D01*
X138289Y442731D01*
X138296Y442724D01*
X138312Y442712D01*
X138331Y442693D01*
X138354Y442666D01*
X138377Y442639D01*
X138404Y442605D01*
X138431Y442566D01*
X138458Y442524D01*
X138484Y442474D01*
X138507Y442424D01*
X138531Y442367D01*
X138550Y442305D01*
X138565Y442240D01*
X138573Y442171D01*
X138577Y442098D01*
Y442071D01*
X138573Y442048D01*
Y442025D01*
X138569Y441994D01*
X138557Y441925D01*
X138534Y441848D01*
X138504Y441768D01*
X138465Y441687D01*
X138438Y441648D01*
X138408Y441610D01*
Y441606D01*
X138400Y441602D01*
X138377Y441579D01*
X138338Y441549D01*
X138289Y441510D01*
X138223Y441468D01*
X138146Y441433D01*
X138054Y441399D01*
X137951Y441380D01*
X137928Y441687D01*
X137932D01*
X137935D01*
X137958Y441695D01*
X137989Y441706D01*
X138028Y441718D01*
X138116Y441756D01*
X138154Y441779D01*
X138189Y441806D01*
X138196Y441810D01*
X138212Y441829D01*
X138231Y441856D01*
X138258Y441890D01*
X138281Y441936D01*
X138304Y441990D01*
X138319Y442052D01*
X138323Y442117D01*
Y442144D01*
X138319Y442171D01*
X138312Y442205D01*
X138304Y442247D01*
X138289Y442294D01*
X138266Y442336D01*
X138239Y442382D01*
X138235Y442390D01*
X138219Y442405D01*
X138193Y442432D01*
X138158Y442463D01*
X138116Y442501D01*
X138062Y442539D01*
X137997Y442578D01*
X137924Y442612D01*
X137920D01*
X137916Y442616D01*
X137901Y442620D01*
X137885Y442624D01*
X137866Y442631D01*
X137839Y442639D01*
X137809Y442647D01*
X137774Y442655D01*
X137736Y442662D01*
X137693Y442670D01*
X137644Y442678D01*
X137594Y442685D01*
X137536Y442689D01*
X137475Y442693D01*
X137409Y442697D01*
X137344D01*
X137348Y442693D01*
X137367Y442678D01*
X137398Y442655D01*
X137436Y442620D01*
X137478Y442582D01*
X137521Y442535D01*
X137559Y442482D01*
X137594Y442424D01*
X137597Y442416D01*
X137605Y442397D01*
X137620Y442363D01*
X137636Y442320D01*
X137651Y442271D01*
X137666Y442213D01*
X137674Y442152D01*
X137678Y442086D01*
Y442056D01*
X137674Y442032D01*
X137670Y442006D01*
X137666Y441975D01*
X137651Y441902D01*
X137620Y441821D01*
X137605Y441775D01*
X137582Y441733D01*
X137555Y441687D01*
X137524Y441641D01*
X137490Y441599D01*
X137448Y441556D01*
X137444Y441552D01*
X137436Y441549D01*
X137425Y441537D01*
X137405Y441522D01*
X137382Y441506D01*
X137355Y441487D01*
X137325Y441468D01*
X137290Y441445D01*
X137248Y441426D01*
X137206Y441407D01*
X137156Y441387D01*
X137106Y441372D01*
X137048Y441357D01*
X136991Y441345D01*
X136925Y441341D01*
X136860Y441337D01*
X136856D01*
X136849D01*
X136837D01*
X136822D01*
X136799Y441341D01*
X136776D01*
X136714Y441349D01*
X136649Y441364D01*
X136572Y441380D01*
X136495Y441407D01*
X136418Y441441D01*
X136415D01*
X136411Y441445D01*
X136399Y441453D01*
X136384Y441460D01*
X136349Y441483D01*
X136303Y441514D01*
X136253Y441556D01*
X136204Y441606D01*
X136153Y441660D01*
X136108Y441725D01*
X136104Y441733D01*
X136092Y441756D01*
X136073Y441794D01*
X136054Y441841D01*
X136035Y441902D01*
X136015Y441971D01*
X136004Y442048D01*
X136000Y442129D01*
Y442144D01*
X136004Y442167D01*
Y442194D01*
X136008Y442225D01*
X136015Y442263D01*
X136023Y442305D01*
X136035Y442351D01*
X136050Y442401D01*
X136069Y442455D01*
X136092Y442505D01*
X136119Y442559D01*
X136153Y442612D01*
X136192Y442666D01*
X136234Y442716D01*
X136284Y442762D01*
X136288Y442766D01*
X136300Y442774D01*
X136315Y442785D01*
X136338Y442801D01*
X136369Y442820D01*
X136407Y442839D01*
X136453Y442862D01*
X136507Y442881D01*
X136568Y442904D01*
X136637Y442927D01*
X136714Y442946D01*
X136799Y442966D01*
X136891Y442981D01*
X136995Y442992D01*
X137102Y443000D01*
X137221Y443004D01*
X137225D01*
X137229D01*
X137240D01*
X137252D01*
X137290D01*
X137340Y443000D01*
D02*
G37*
G36*
X108890Y463845D02*
Y463841D01*
Y463829D01*
Y463814D01*
Y463791D01*
X108886Y463764D01*
Y463733D01*
X108882Y463664D01*
X108871Y463584D01*
X108859Y463503D01*
X108840Y463422D01*
X108813Y463353D01*
X108809Y463346D01*
X108798Y463326D01*
X108779Y463296D01*
X108756Y463257D01*
X108721Y463211D01*
X108679Y463169D01*
X108625Y463127D01*
X108568Y463088D01*
X108560Y463084D01*
X108537Y463073D01*
X108502Y463061D01*
X108456Y463046D01*
X108398Y463027D01*
X108333Y463015D01*
X108256Y463004D01*
X108176Y463000D01*
X108145D01*
X108122Y463004D01*
X108095Y463008D01*
X108061Y463012D01*
X107988Y463023D01*
X107907Y463046D01*
X107823Y463081D01*
X107780Y463100D01*
X107742Y463127D01*
X107703Y463154D01*
X107669Y463188D01*
Y463192D01*
X107661Y463196D01*
X107653Y463207D01*
X107642Y463223D01*
X107627Y463246D01*
X107615Y463269D01*
X107596Y463300D01*
X107581Y463330D01*
X107565Y463369D01*
X107550Y463411D01*
X107535Y463457D01*
X107523Y463511D01*
X107511Y463564D01*
X107504Y463626D01*
X107500Y463687D01*
Y463756D01*
X107799Y463799D01*
Y463795D01*
Y463787D01*
Y463772D01*
X107803Y463753D01*
Y463730D01*
X107807Y463703D01*
X107819Y463641D01*
X107830Y463572D01*
X107849Y463507D01*
X107876Y463449D01*
X107892Y463422D01*
X107907Y463399D01*
X107911Y463396D01*
X107926Y463384D01*
X107945Y463365D01*
X107976Y463349D01*
X108015Y463330D01*
X108061Y463311D01*
X108114Y463300D01*
X108176Y463296D01*
X108199D01*
X108222Y463300D01*
X108249Y463303D01*
X108283Y463311D01*
X108322Y463319D01*
X108356Y463334D01*
X108391Y463353D01*
X108395Y463357D01*
X108406Y463365D01*
X108422Y463376D01*
X108441Y463396D01*
X108464Y463415D01*
X108483Y463442D01*
X108502Y463472D01*
X108518Y463507D01*
Y463511D01*
X108525Y463526D01*
X108529Y463549D01*
X108537Y463584D01*
X108544Y463630D01*
X108548Y463684D01*
X108556Y463749D01*
Y463826D01*
Y465565D01*
X108890D01*
Y463845D01*
D02*
G37*
G36*
X110476Y463042D02*
X110165D01*
Y465016D01*
X110161Y465012D01*
X110146Y464997D01*
X110119Y464978D01*
X110084Y464951D01*
X110042Y464916D01*
X109992Y464882D01*
X109934Y464839D01*
X109869Y464801D01*
X109865D01*
X109862Y464797D01*
X109838Y464782D01*
X109804Y464762D01*
X109762Y464740D01*
X109712Y464713D01*
X109658Y464689D01*
X109600Y464663D01*
X109547Y464640D01*
Y464943D01*
X109550D01*
X109558Y464947D01*
X109574Y464955D01*
X109589Y464966D01*
X109612Y464978D01*
X109639Y464989D01*
X109700Y465024D01*
X109769Y465066D01*
X109846Y465116D01*
X109923Y465173D01*
X109996Y465235D01*
X110000Y465239D01*
X110004Y465242D01*
X110027Y465266D01*
X110061Y465300D01*
X110103Y465342D01*
X110150Y465396D01*
X110196Y465454D01*
X110238Y465515D01*
X110272Y465577D01*
X110476D01*
Y463042D01*
D02*
G37*
G36*
X122890Y463345D02*
Y463341D01*
Y463329D01*
Y463314D01*
Y463291D01*
X122886Y463264D01*
Y463233D01*
X122882Y463164D01*
X122871Y463084D01*
X122859Y463003D01*
X122840Y462922D01*
X122813Y462853D01*
X122809Y462846D01*
X122798Y462826D01*
X122779Y462796D01*
X122756Y462757D01*
X122721Y462711D01*
X122679Y462669D01*
X122625Y462627D01*
X122567Y462588D01*
X122560Y462584D01*
X122537Y462573D01*
X122502Y462561D01*
X122456Y462546D01*
X122398Y462527D01*
X122333Y462515D01*
X122256Y462504D01*
X122176Y462500D01*
X122145D01*
X122122Y462504D01*
X122095Y462508D01*
X122061Y462511D01*
X121988Y462523D01*
X121907Y462546D01*
X121823Y462581D01*
X121780Y462600D01*
X121742Y462627D01*
X121704Y462653D01*
X121669Y462688D01*
Y462692D01*
X121661Y462696D01*
X121653Y462707D01*
X121642Y462723D01*
X121627Y462746D01*
X121615Y462769D01*
X121596Y462800D01*
X121581Y462830D01*
X121565Y462869D01*
X121550Y462911D01*
X121535Y462957D01*
X121523Y463011D01*
X121511Y463064D01*
X121504Y463126D01*
X121500Y463187D01*
Y463256D01*
X121800Y463299D01*
Y463295D01*
Y463287D01*
Y463272D01*
X121803Y463253D01*
Y463230D01*
X121807Y463203D01*
X121819Y463141D01*
X121830Y463072D01*
X121849Y463007D01*
X121876Y462949D01*
X121892Y462922D01*
X121907Y462899D01*
X121911Y462895D01*
X121926Y462884D01*
X121945Y462865D01*
X121976Y462849D01*
X122014Y462830D01*
X122061Y462811D01*
X122114Y462800D01*
X122176Y462796D01*
X122199D01*
X122222Y462800D01*
X122249Y462803D01*
X122283Y462811D01*
X122322Y462819D01*
X122356Y462834D01*
X122391Y462853D01*
X122395Y462857D01*
X122406Y462865D01*
X122422Y462876D01*
X122441Y462895D01*
X122464Y462915D01*
X122483Y462942D01*
X122502Y462972D01*
X122518Y463007D01*
Y463011D01*
X122525Y463026D01*
X122529Y463049D01*
X122537Y463084D01*
X122544Y463130D01*
X122548Y463183D01*
X122556Y463249D01*
Y463326D01*
Y465065D01*
X122890D01*
Y463345D01*
D02*
G37*
G36*
X124203Y465073D02*
X124234Y465069D01*
X124269Y465065D01*
X124307Y465061D01*
X124349Y465050D01*
X124441Y465027D01*
X124537Y464992D01*
X124587Y464969D01*
X124633Y464942D01*
X124676Y464908D01*
X124718Y464873D01*
X124722Y464869D01*
X124725Y464865D01*
X124737Y464854D01*
X124752Y464839D01*
X124768Y464816D01*
X124787Y464792D01*
X124825Y464735D01*
X124864Y464662D01*
X124898Y464577D01*
X124925Y464481D01*
X124929Y464428D01*
X124933Y464374D01*
Y464366D01*
Y464347D01*
X124929Y464316D01*
X124925Y464278D01*
X124918Y464232D01*
X124906Y464182D01*
X124891Y464128D01*
X124868Y464074D01*
X124864Y464067D01*
X124856Y464047D01*
X124841Y464021D01*
X124818Y463982D01*
X124791Y463936D01*
X124756Y463882D01*
X124710Y463829D01*
X124660Y463767D01*
X124653Y463760D01*
X124633Y463736D01*
X124599Y463702D01*
X124576Y463679D01*
X124549Y463652D01*
X124518Y463621D01*
X124480Y463587D01*
X124441Y463552D01*
X124399Y463510D01*
X124353Y463468D01*
X124299Y463422D01*
X124246Y463376D01*
X124184Y463322D01*
X124180Y463318D01*
X124173Y463310D01*
X124157Y463299D01*
X124138Y463283D01*
X124092Y463245D01*
X124034Y463195D01*
X123977Y463141D01*
X123915Y463088D01*
X123865Y463041D01*
X123846Y463022D01*
X123827Y463003D01*
X123823Y462999D01*
X123816Y462988D01*
X123800Y462972D01*
X123781Y462949D01*
X123739Y462899D01*
X123696Y462838D01*
X124937D01*
Y462542D01*
X123266D01*
Y462546D01*
Y462561D01*
Y462584D01*
X123270Y462611D01*
X123274Y462642D01*
X123278Y462677D01*
X123289Y462715D01*
X123301Y462753D01*
Y462757D01*
X123305Y462761D01*
X123312Y462784D01*
X123328Y462815D01*
X123351Y462861D01*
X123378Y462911D01*
X123416Y462968D01*
X123454Y463026D01*
X123504Y463088D01*
Y463091D01*
X123512Y463095D01*
X123531Y463118D01*
X123562Y463153D01*
X123608Y463199D01*
X123666Y463253D01*
X123735Y463318D01*
X123819Y463391D01*
X123911Y463472D01*
X123915Y463475D01*
X123931Y463487D01*
X123950Y463502D01*
X123977Y463529D01*
X124011Y463556D01*
X124050Y463590D01*
X124134Y463663D01*
X124226Y463752D01*
X124319Y463840D01*
X124365Y463882D01*
X124403Y463925D01*
X124438Y463967D01*
X124468Y464005D01*
Y464009D01*
X124476Y464013D01*
X124484Y464024D01*
X124491Y464040D01*
X124514Y464078D01*
X124541Y464128D01*
X124568Y464186D01*
X124591Y464247D01*
X124607Y464316D01*
X124614Y464382D01*
Y464385D01*
Y464389D01*
X124610Y464412D01*
X124607Y464447D01*
X124599Y464489D01*
X124580Y464539D01*
X124557Y464589D01*
X124526Y464643D01*
X124480Y464693D01*
X124472Y464696D01*
X124457Y464712D01*
X124426Y464731D01*
X124388Y464758D01*
X124338Y464781D01*
X124280Y464800D01*
X124211Y464816D01*
X124134Y464819D01*
X124111D01*
X124096Y464816D01*
X124057Y464812D01*
X124007Y464804D01*
X123950Y464785D01*
X123888Y464762D01*
X123831Y464727D01*
X123777Y464681D01*
X123773Y464673D01*
X123758Y464658D01*
X123735Y464627D01*
X123712Y464585D01*
X123685Y464531D01*
X123666Y464470D01*
X123650Y464397D01*
X123643Y464312D01*
X123324Y464347D01*
Y464351D01*
Y464362D01*
X123328Y464382D01*
X123332Y464405D01*
X123339Y464435D01*
X123343Y464470D01*
X123366Y464547D01*
X123397Y464635D01*
X123439Y464723D01*
X123497Y464812D01*
X123528Y464850D01*
X123566Y464888D01*
X123570Y464892D01*
X123577Y464896D01*
X123589Y464908D01*
X123604Y464919D01*
X123627Y464931D01*
X123654Y464950D01*
X123685Y464965D01*
X123720Y464984D01*
X123758Y465000D01*
X123800Y465019D01*
X123850Y465034D01*
X123900Y465046D01*
X124015Y465069D01*
X124077Y465073D01*
X124142Y465077D01*
X124176D01*
X124203Y465073D01*
D02*
G37*
G36*
X127290Y432566D02*
X127316Y432563D01*
X127351Y432559D01*
X127428Y432544D01*
X127512Y432513D01*
X127558Y432497D01*
X127604Y432474D01*
X127651Y432447D01*
X127697Y432417D01*
X127739Y432382D01*
X127781Y432340D01*
X127785Y432336D01*
X127789Y432328D01*
X127800Y432317D01*
X127816Y432298D01*
X127831Y432275D01*
X127850Y432248D01*
X127869Y432217D01*
X127889Y432179D01*
X127912Y432136D01*
X127931Y432090D01*
X127950Y432040D01*
X127965Y431987D01*
X127981Y431933D01*
X127992Y431872D01*
X127996Y431806D01*
X128000Y431737D01*
Y431703D01*
X127996Y431676D01*
X127992Y431645D01*
X127989Y431606D01*
X127981Y431568D01*
X127973Y431522D01*
X127946Y431426D01*
X127927Y431376D01*
X127908Y431326D01*
X127881Y431276D01*
X127854Y431226D01*
X127820Y431180D01*
X127781Y431134D01*
X127777Y431130D01*
X127770Y431123D01*
X127758Y431115D01*
X127743Y431100D01*
X127720Y431080D01*
X127693Y431061D01*
X127662Y431042D01*
X127628Y431023D01*
X127589Y431000D01*
X127547Y430981D01*
X127455Y430942D01*
X127401Y430927D01*
X127347Y430919D01*
X127290Y430911D01*
X127228Y430908D01*
X127224D01*
X127217D01*
X127205D01*
X127186Y430911D01*
X127167D01*
X127140Y430915D01*
X127086Y430923D01*
X127021Y430938D01*
X126952Y430961D01*
X126883Y430988D01*
X126817Y431031D01*
X126813D01*
X126810Y431038D01*
X126790Y431053D01*
X126760Y431084D01*
X126725Y431123D01*
X126687Y431173D01*
X126648Y431234D01*
X126614Y431307D01*
X126587Y431388D01*
Y431384D01*
X126583Y431380D01*
X126575Y431357D01*
X126556Y431322D01*
X126537Y431280D01*
X126506Y431230D01*
X126472Y431184D01*
X126433Y431138D01*
X126387Y431100D01*
X126380Y431096D01*
X126364Y431084D01*
X126337Y431069D01*
X126299Y431053D01*
X126253Y431038D01*
X126199Y431023D01*
X126142Y431011D01*
X126076Y431007D01*
X126072D01*
X126065D01*
X126049D01*
X126030Y431011D01*
X126007Y431015D01*
X125980Y431019D01*
X125915Y431031D01*
X125842Y431053D01*
X125765Y431092D01*
X125723Y431111D01*
X125684Y431138D01*
X125646Y431169D01*
X125612Y431203D01*
X125608Y431207D01*
X125604Y431211D01*
X125592Y431222D01*
X125581Y431238D01*
X125569Y431261D01*
X125550Y431284D01*
X125535Y431311D01*
X125516Y431345D01*
X125481Y431418D01*
X125454Y431510D01*
X125431Y431614D01*
X125427Y431668D01*
X125423Y431729D01*
Y431760D01*
X125427Y431783D01*
Y431814D01*
X125435Y431845D01*
X125446Y431921D01*
X125470Y432006D01*
X125504Y432094D01*
X125527Y432140D01*
X125550Y432183D01*
X125581Y432225D01*
X125615Y432263D01*
X125619Y432267D01*
X125623Y432271D01*
X125635Y432282D01*
X125650Y432294D01*
X125669Y432309D01*
X125692Y432328D01*
X125746Y432367D01*
X125815Y432401D01*
X125896Y432436D01*
X125984Y432459D01*
X126034Y432463D01*
X126084Y432467D01*
X126092D01*
X126115D01*
X126145Y432463D01*
X126188Y432455D01*
X126237Y432444D01*
X126287Y432428D01*
X126341Y432405D01*
X126391Y432374D01*
X126395Y432371D01*
X126410Y432359D01*
X126433Y432336D01*
X126464Y432305D01*
X126495Y432267D01*
X126525Y432217D01*
X126560Y432160D01*
X126587Y432094D01*
Y432098D01*
X126591Y432106D01*
X126595Y432117D01*
X126602Y432133D01*
X126621Y432175D01*
X126645Y432225D01*
X126679Y432282D01*
X126721Y432340D01*
X126775Y432398D01*
X126833Y432447D01*
X126840Y432451D01*
X126863Y432467D01*
X126898Y432486D01*
X126948Y432509D01*
X127006Y432532D01*
X127075Y432551D01*
X127151Y432566D01*
X127236Y432570D01*
X127240D01*
X127251D01*
X127267D01*
X127290Y432566D01*
D02*
G37*
G36*
X127958Y430301D02*
X127436Y429967D01*
X127432D01*
X127424Y429959D01*
X127412Y429951D01*
X127397Y429944D01*
X127359Y429917D01*
X127309Y429882D01*
X127251Y429844D01*
X127194Y429802D01*
X127140Y429763D01*
X127090Y429725D01*
X127086Y429721D01*
X127071Y429710D01*
X127048Y429690D01*
X127021Y429671D01*
X126967Y429614D01*
X126940Y429587D01*
X126921Y429556D01*
X126917Y429552D01*
X126913Y429544D01*
X126906Y429529D01*
X126894Y429510D01*
X126871Y429464D01*
X126852Y429406D01*
Y429402D01*
X126848Y429395D01*
Y429379D01*
X126844Y429360D01*
X126840Y429333D01*
Y429303D01*
X126837Y429264D01*
Y428834D01*
X127958D01*
Y428500D01*
X125435D01*
Y429671D01*
X125439Y429702D01*
Y429733D01*
X125443Y429809D01*
X125450Y429890D01*
X125466Y429975D01*
X125481Y430055D01*
X125493Y430093D01*
X125504Y430128D01*
Y430132D01*
X125508Y430136D01*
X125516Y430159D01*
X125535Y430190D01*
X125562Y430228D01*
X125592Y430274D01*
X125635Y430320D01*
X125684Y430366D01*
X125746Y430408D01*
X125754Y430412D01*
X125777Y430424D01*
X125811Y430443D01*
X125857Y430462D01*
X125915Y430481D01*
X125980Y430501D01*
X126049Y430512D01*
X126126Y430516D01*
X126130D01*
X126138D01*
X126153D01*
X126172Y430512D01*
X126195D01*
X126222Y430508D01*
X126284Y430493D01*
X126356Y430474D01*
X126429Y430443D01*
X126506Y430397D01*
X126545Y430370D01*
X126579Y430339D01*
X126587Y430332D01*
X126595Y430320D01*
X126610Y430309D01*
X126621Y430289D01*
X126641Y430266D01*
X126656Y430239D01*
X126675Y430209D01*
X126694Y430174D01*
X126714Y430132D01*
X126733Y430090D01*
X126752Y430040D01*
X126771Y429990D01*
X126787Y429932D01*
X126798Y429871D01*
X126810Y429806D01*
X126813Y429813D01*
X126821Y429829D01*
X126833Y429852D01*
X126848Y429879D01*
X126890Y429944D01*
X126913Y429978D01*
X126936Y430005D01*
X126944Y430013D01*
X126959Y430032D01*
X126990Y430059D01*
X127029Y430093D01*
X127078Y430136D01*
X127136Y430182D01*
X127201Y430232D01*
X127274Y430282D01*
X127958Y430720D01*
Y430301D01*
D02*
G37*
G36*
X166890Y411345D02*
Y411341D01*
Y411329D01*
Y411314D01*
Y411291D01*
X166886Y411264D01*
Y411233D01*
X166882Y411164D01*
X166871Y411084D01*
X166859Y411003D01*
X166840Y410922D01*
X166813Y410853D01*
X166809Y410846D01*
X166798Y410826D01*
X166779Y410796D01*
X166756Y410757D01*
X166721Y410711D01*
X166679Y410669D01*
X166625Y410627D01*
X166568Y410588D01*
X166560Y410584D01*
X166537Y410573D01*
X166502Y410561D01*
X166456Y410546D01*
X166399Y410527D01*
X166333Y410515D01*
X166256Y410504D01*
X166176Y410500D01*
X166145D01*
X166122Y410504D01*
X166095Y410508D01*
X166061Y410511D01*
X165988Y410523D01*
X165907Y410546D01*
X165823Y410581D01*
X165780Y410600D01*
X165742Y410627D01*
X165703Y410653D01*
X165669Y410688D01*
Y410692D01*
X165661Y410696D01*
X165654Y410707D01*
X165642Y410723D01*
X165627Y410746D01*
X165615Y410769D01*
X165596Y410800D01*
X165581Y410830D01*
X165565Y410869D01*
X165550Y410911D01*
X165534Y410957D01*
X165523Y411011D01*
X165512Y411064D01*
X165504Y411126D01*
X165500Y411187D01*
Y411256D01*
X165799Y411299D01*
Y411295D01*
Y411287D01*
Y411272D01*
X165803Y411253D01*
Y411230D01*
X165807Y411203D01*
X165819Y411141D01*
X165830Y411072D01*
X165849Y411007D01*
X165876Y410949D01*
X165892Y410922D01*
X165907Y410899D01*
X165911Y410895D01*
X165926Y410884D01*
X165945Y410865D01*
X165976Y410849D01*
X166015Y410830D01*
X166061Y410811D01*
X166114Y410800D01*
X166176Y410796D01*
X166199D01*
X166222Y410800D01*
X166249Y410803D01*
X166283Y410811D01*
X166322Y410819D01*
X166356Y410834D01*
X166391Y410853D01*
X166395Y410857D01*
X166406Y410865D01*
X166422Y410876D01*
X166441Y410895D01*
X166464Y410915D01*
X166483Y410942D01*
X166502Y410972D01*
X166518Y411007D01*
Y411011D01*
X166525Y411026D01*
X166529Y411049D01*
X166537Y411084D01*
X166544Y411130D01*
X166548Y411184D01*
X166556Y411249D01*
Y411326D01*
Y413065D01*
X166890D01*
Y411345D01*
D02*
G37*
G36*
X168860Y412731D02*
X167854D01*
X167716Y412051D01*
X167719Y412055D01*
X167727Y412059D01*
X167739Y412067D01*
X167754Y412078D01*
X167777Y412090D01*
X167800Y412101D01*
X167862Y412132D01*
X167931Y412163D01*
X168011Y412186D01*
X168100Y412205D01*
X168192Y412213D01*
X168222D01*
X168246Y412209D01*
X168276Y412205D01*
X168307Y412201D01*
X168345Y412193D01*
X168384Y412186D01*
X168472Y412155D01*
X168518Y412140D01*
X168564Y412117D01*
X168614Y412090D01*
X168660Y412059D01*
X168706Y412024D01*
X168749Y411982D01*
X168752Y411978D01*
X168760Y411971D01*
X168772Y411959D01*
X168783Y411940D01*
X168802Y411917D01*
X168822Y411890D01*
X168841Y411859D01*
X168864Y411825D01*
X168887Y411783D01*
X168906Y411740D01*
X168925Y411690D01*
X168944Y411640D01*
X168956Y411583D01*
X168967Y411525D01*
X168975Y411460D01*
X168979Y411395D01*
Y411391D01*
Y411379D01*
Y411360D01*
X168975Y411337D01*
X168971Y411306D01*
X168967Y411272D01*
X168964Y411233D01*
X168956Y411191D01*
X168929Y411099D01*
X168895Y411003D01*
X168871Y410949D01*
X168845Y410899D01*
X168814Y410849D01*
X168779Y410803D01*
X168775Y410800D01*
X168768Y410792D01*
X168752Y410776D01*
X168733Y410757D01*
X168710Y410734D01*
X168679Y410707D01*
X168645Y410680D01*
X168603Y410653D01*
X168560Y410623D01*
X168510Y410596D01*
X168453Y410569D01*
X168395Y410546D01*
X168330Y410527D01*
X168265Y410511D01*
X168192Y410504D01*
X168115Y410500D01*
X168080D01*
X168057Y410504D01*
X168031Y410508D01*
X167996Y410511D01*
X167957Y410515D01*
X167915Y410523D01*
X167827Y410546D01*
X167735Y410581D01*
X167689Y410604D01*
X167643Y410631D01*
X167597Y410657D01*
X167554Y410692D01*
X167551Y410696D01*
X167547Y410700D01*
X167535Y410711D01*
X167520Y410726D01*
X167504Y410746D01*
X167485Y410769D01*
X167466Y410796D01*
X167443Y410826D01*
X167401Y410899D01*
X167359Y410988D01*
X167328Y411088D01*
X167316Y411145D01*
X167309Y411203D01*
X167635Y411226D01*
Y411222D01*
Y411214D01*
X167639Y411203D01*
X167643Y411187D01*
X167654Y411145D01*
X167670Y411091D01*
X167689Y411034D01*
X167719Y410976D01*
X167754Y410919D01*
X167800Y410869D01*
X167808Y410865D01*
X167823Y410849D01*
X167850Y410834D01*
X167888Y410811D01*
X167935Y410792D01*
X167988Y410773D01*
X168050Y410757D01*
X168115Y410753D01*
X168138D01*
X168153Y410757D01*
X168196Y410761D01*
X168249Y410773D01*
X168307Y410796D01*
X168372Y410822D01*
X168434Y410865D01*
X168464Y410888D01*
X168495Y410919D01*
Y410922D01*
X168503Y410926D01*
X168518Y410949D01*
X168545Y410988D01*
X168572Y411038D01*
X168599Y411103D01*
X168626Y411180D01*
X168641Y411268D01*
X168649Y411368D01*
Y411372D01*
Y411379D01*
Y411395D01*
X168645Y411410D01*
Y411433D01*
X168641Y411460D01*
X168630Y411521D01*
X168614Y411587D01*
X168587Y411656D01*
X168549Y411725D01*
X168499Y411786D01*
X168491Y411794D01*
X168472Y411809D01*
X168441Y411836D01*
X168395Y411863D01*
X168342Y411890D01*
X168272Y411917D01*
X168196Y411932D01*
X168111Y411940D01*
X168084D01*
X168057Y411936D01*
X168019Y411932D01*
X167977Y411921D01*
X167931Y411909D01*
X167885Y411890D01*
X167839Y411867D01*
X167835Y411863D01*
X167819Y411856D01*
X167796Y411840D01*
X167769Y411821D01*
X167743Y411794D01*
X167712Y411763D01*
X167681Y411729D01*
X167654Y411690D01*
X167362Y411733D01*
X167608Y413027D01*
X168860D01*
Y412731D01*
D02*
G37*
G36*
X152386Y439996D02*
X152421D01*
X152463Y439992D01*
X152505Y439989D01*
X152555Y439981D01*
X152663Y439962D01*
X152778Y439939D01*
X152897Y439900D01*
X153008Y439850D01*
X153012D01*
X153020Y439843D01*
X153035Y439835D01*
X153058Y439823D01*
X153081Y439808D01*
X153108Y439789D01*
X153173Y439739D01*
X153246Y439681D01*
X153319Y439608D01*
X153392Y439520D01*
X153454Y439424D01*
Y439420D01*
X153461Y439412D01*
X153469Y439397D01*
X153477Y439374D01*
X153488Y439351D01*
X153504Y439320D01*
X153515Y439282D01*
X153531Y439244D01*
X153546Y439201D01*
X153557Y439155D01*
X153584Y439052D01*
X153600Y438936D01*
X153607Y438813D01*
Y438775D01*
X153603Y438748D01*
X153600Y438718D01*
X153596Y438679D01*
X153592Y438637D01*
X153584Y438591D01*
X153561Y438491D01*
X153527Y438383D01*
X153504Y438330D01*
X153477Y438276D01*
X153446Y438226D01*
X153411Y438176D01*
X153408Y438172D01*
X153404Y438165D01*
X153392Y438153D01*
X153377Y438134D01*
X153358Y438115D01*
X153331Y438088D01*
X153304Y438061D01*
X153273Y438034D01*
X153235Y438003D01*
X153196Y437976D01*
X153150Y437946D01*
X153100Y437915D01*
X153050Y437888D01*
X152993Y437861D01*
X152870Y437815D01*
X152793Y438145D01*
X152797D01*
X152805Y438149D01*
X152820Y438153D01*
X152839Y438161D01*
X152862Y438172D01*
X152889Y438184D01*
X152947Y438211D01*
X153012Y438245D01*
X153081Y438291D01*
X153143Y438341D01*
X153196Y438403D01*
X153200Y438410D01*
X153216Y438433D01*
X153235Y438468D01*
X153262Y438518D01*
X153285Y438575D01*
X153304Y438648D01*
X153319Y438729D01*
X153323Y438821D01*
Y438848D01*
X153319Y438867D01*
Y438894D01*
X153315Y438921D01*
X153304Y438990D01*
X153289Y439067D01*
X153262Y439148D01*
X153227Y439228D01*
X153181Y439305D01*
Y439309D01*
X153173Y439313D01*
X153154Y439336D01*
X153123Y439370D01*
X153081Y439412D01*
X153027Y439455D01*
X152966Y439501D01*
X152889Y439543D01*
X152805Y439578D01*
X152801D01*
X152793Y439581D01*
X152782Y439585D01*
X152762Y439589D01*
X152743Y439597D01*
X152716Y439601D01*
X152655Y439616D01*
X152582Y439631D01*
X152501Y439643D01*
X152413Y439651D01*
X152321Y439654D01*
X152317D01*
X152305D01*
X152290D01*
X152267D01*
X152240Y439651D01*
X152206D01*
X152171Y439647D01*
X152133Y439643D01*
X152044Y439631D01*
X151948Y439616D01*
X151852Y439593D01*
X151760Y439562D01*
X151756D01*
X151749Y439558D01*
X151737Y439551D01*
X151722Y439543D01*
X151676Y439524D01*
X151626Y439493D01*
X151564Y439451D01*
X151507Y439401D01*
X151449Y439343D01*
X151399Y439274D01*
Y439270D01*
X151395Y439267D01*
X151388Y439255D01*
X151380Y439240D01*
X151365Y439197D01*
X151342Y439144D01*
X151322Y439082D01*
X151303Y439009D01*
X151288Y438929D01*
X151284Y438844D01*
Y438817D01*
X151288Y438798D01*
Y438775D01*
X151292Y438744D01*
X151303Y438679D01*
X151322Y438606D01*
X151353Y438525D01*
X151392Y438449D01*
X151445Y438372D01*
X151449Y438368D01*
X151453Y438364D01*
X151476Y438341D01*
X151514Y438307D01*
X151564Y438264D01*
X151634Y438222D01*
X151714Y438176D01*
X151814Y438138D01*
X151925Y438107D01*
X151841Y437773D01*
X151837D01*
X151822Y437777D01*
X151803Y437784D01*
X151772Y437792D01*
X151741Y437807D01*
X151699Y437823D01*
X151657Y437838D01*
X151611Y437861D01*
X151507Y437911D01*
X151403Y437980D01*
X151303Y438057D01*
X151257Y438103D01*
X151215Y438153D01*
X151211Y438157D01*
X151207Y438165D01*
X151196Y438180D01*
X151180Y438203D01*
X151165Y438230D01*
X151146Y438261D01*
X151127Y438295D01*
X151108Y438337D01*
X151088Y438383D01*
X151069Y438433D01*
X151050Y438491D01*
X151034Y438549D01*
X151008Y438675D01*
X151004Y438744D01*
X151000Y438817D01*
Y438856D01*
X151004Y438886D01*
Y438921D01*
X151008Y438959D01*
X151015Y439006D01*
X151019Y439052D01*
X151042Y439159D01*
X151069Y439270D01*
X151111Y439378D01*
X151134Y439432D01*
X151165Y439482D01*
X151169Y439486D01*
X151173Y439493D01*
X151184Y439505D01*
X151196Y439524D01*
X151234Y439570D01*
X151288Y439624D01*
X151353Y439689D01*
X151438Y439750D01*
X151534Y439816D01*
X151645Y439869D01*
X151649D01*
X151660Y439873D01*
X151676Y439881D01*
X151699Y439889D01*
X151730Y439900D01*
X151764Y439912D01*
X151803Y439923D01*
X151849Y439935D01*
X151895Y439946D01*
X151948Y439958D01*
X152064Y439981D01*
X152187Y439996D01*
X152321Y440000D01*
X152325D01*
X152340D01*
X152359D01*
X152386Y439996D01*
D02*
G37*
G36*
X151814Y437489D02*
X151833D01*
X151860Y437485D01*
X151914Y437477D01*
X151979Y437462D01*
X152048Y437439D01*
X152117Y437412D01*
X152183Y437370D01*
X152187D01*
X152190Y437362D01*
X152209Y437347D01*
X152240Y437316D01*
X152275Y437278D01*
X152313Y437227D01*
X152352Y437166D01*
X152386Y437093D01*
X152413Y437012D01*
Y437016D01*
X152417Y437020D01*
X152425Y437043D01*
X152444Y437078D01*
X152463Y437120D01*
X152494Y437170D01*
X152528Y437216D01*
X152567Y437262D01*
X152613Y437300D01*
X152620Y437304D01*
X152636Y437316D01*
X152663Y437331D01*
X152701Y437347D01*
X152747Y437362D01*
X152801Y437377D01*
X152858Y437389D01*
X152924Y437393D01*
X152928D01*
X152935D01*
X152951D01*
X152970Y437389D01*
X152993Y437385D01*
X153020Y437381D01*
X153085Y437370D01*
X153158Y437347D01*
X153235Y437308D01*
X153277Y437289D01*
X153315Y437262D01*
X153354Y437231D01*
X153388Y437197D01*
X153392Y437193D01*
X153396Y437189D01*
X153408Y437178D01*
X153419Y437162D01*
X153431Y437139D01*
X153450Y437116D01*
X153465Y437089D01*
X153484Y437055D01*
X153519Y436982D01*
X153546Y436890D01*
X153569Y436786D01*
X153573Y436732D01*
X153577Y436671D01*
Y436640D01*
X153573Y436617D01*
Y436586D01*
X153565Y436556D01*
X153553Y436479D01*
X153531Y436394D01*
X153496Y436306D01*
X153473Y436260D01*
X153450Y436218D01*
X153419Y436175D01*
X153385Y436137D01*
X153381Y436133D01*
X153377Y436129D01*
X153365Y436118D01*
X153350Y436106D01*
X153331Y436091D01*
X153308Y436072D01*
X153254Y436033D01*
X153185Y435999D01*
X153104Y435964D01*
X153016Y435941D01*
X152966Y435937D01*
X152916Y435933D01*
X152908D01*
X152885D01*
X152855Y435937D01*
X152812Y435945D01*
X152762Y435956D01*
X152713Y435972D01*
X152659Y435995D01*
X152609Y436026D01*
X152605Y436029D01*
X152590Y436041D01*
X152567Y436064D01*
X152536Y436095D01*
X152505Y436133D01*
X152474Y436183D01*
X152440Y436241D01*
X152413Y436306D01*
Y436302D01*
X152409Y436294D01*
X152405Y436283D01*
X152398Y436268D01*
X152378Y436225D01*
X152356Y436175D01*
X152321Y436118D01*
X152279Y436060D01*
X152225Y436003D01*
X152167Y435953D01*
X152160Y435949D01*
X152137Y435933D01*
X152102Y435914D01*
X152052Y435891D01*
X151995Y435868D01*
X151925Y435849D01*
X151849Y435834D01*
X151764Y435830D01*
X151760D01*
X151749D01*
X151733D01*
X151710Y435834D01*
X151683Y435838D01*
X151649Y435841D01*
X151572Y435857D01*
X151488Y435887D01*
X151442Y435903D01*
X151395Y435926D01*
X151349Y435953D01*
X151303Y435983D01*
X151261Y436018D01*
X151219Y436060D01*
X151215Y436064D01*
X151211Y436072D01*
X151200Y436083D01*
X151184Y436102D01*
X151169Y436126D01*
X151150Y436152D01*
X151130Y436183D01*
X151111Y436222D01*
X151088Y436264D01*
X151069Y436310D01*
X151050Y436360D01*
X151034Y436413D01*
X151019Y436467D01*
X151008Y436529D01*
X151004Y436594D01*
X151000Y436663D01*
Y436698D01*
X151004Y436725D01*
X151008Y436755D01*
X151012Y436794D01*
X151019Y436832D01*
X151027Y436878D01*
X151054Y436974D01*
X151073Y437024D01*
X151092Y437074D01*
X151119Y437124D01*
X151146Y437174D01*
X151180Y437220D01*
X151219Y437266D01*
X151223Y437270D01*
X151230Y437278D01*
X151242Y437285D01*
X151257Y437300D01*
X151280Y437320D01*
X151307Y437339D01*
X151338Y437358D01*
X151372Y437377D01*
X151411Y437400D01*
X151453Y437420D01*
X151545Y437458D01*
X151599Y437473D01*
X151653Y437481D01*
X151710Y437489D01*
X151772Y437493D01*
X151776D01*
X151783D01*
X151795D01*
X151814Y437489D01*
D02*
G37*
G36*
X165249Y385573D02*
X165272D01*
X165303Y385569D01*
X165372Y385557D01*
X165449Y385534D01*
X165530Y385504D01*
X165610Y385465D01*
X165649Y385438D01*
X165687Y385408D01*
X165691D01*
X165695Y385400D01*
X165718Y385377D01*
X165749Y385338D01*
X165787Y385289D01*
X165829Y385223D01*
X165864Y385146D01*
X165898Y385054D01*
X165918Y384951D01*
X165610Y384928D01*
Y384931D01*
Y384935D01*
X165603Y384958D01*
X165591Y384989D01*
X165580Y385028D01*
X165541Y385116D01*
X165518Y385154D01*
X165491Y385189D01*
X165488Y385196D01*
X165468Y385212D01*
X165441Y385231D01*
X165407Y385258D01*
X165361Y385281D01*
X165307Y385304D01*
X165246Y385319D01*
X165180Y385323D01*
X165153D01*
X165127Y385319D01*
X165092Y385312D01*
X165050Y385304D01*
X165004Y385289D01*
X164961Y385265D01*
X164915Y385239D01*
X164908Y385235D01*
X164892Y385220D01*
X164865Y385193D01*
X164835Y385158D01*
X164796Y385116D01*
X164758Y385062D01*
X164719Y384997D01*
X164685Y384924D01*
Y384920D01*
X164681Y384916D01*
X164677Y384901D01*
X164673Y384885D01*
X164666Y384866D01*
X164658Y384839D01*
X164650Y384809D01*
X164643Y384774D01*
X164635Y384736D01*
X164627Y384693D01*
X164620Y384644D01*
X164612Y384594D01*
X164608Y384536D01*
X164604Y384474D01*
X164600Y384409D01*
Y384344D01*
X164604Y384348D01*
X164620Y384367D01*
X164643Y384398D01*
X164677Y384436D01*
X164716Y384478D01*
X164762Y384521D01*
X164815Y384559D01*
X164873Y384594D01*
X164881Y384597D01*
X164900Y384605D01*
X164935Y384620D01*
X164977Y384636D01*
X165027Y384651D01*
X165084Y384666D01*
X165146Y384674D01*
X165211Y384678D01*
X165242D01*
X165265Y384674D01*
X165292Y384670D01*
X165322Y384666D01*
X165395Y384651D01*
X165476Y384620D01*
X165522Y384605D01*
X165564Y384582D01*
X165610Y384555D01*
X165656Y384524D01*
X165699Y384490D01*
X165741Y384448D01*
X165745Y384444D01*
X165749Y384436D01*
X165760Y384425D01*
X165776Y384405D01*
X165791Y384382D01*
X165810Y384355D01*
X165829Y384325D01*
X165852Y384290D01*
X165872Y384248D01*
X165891Y384206D01*
X165910Y384156D01*
X165925Y384106D01*
X165941Y384048D01*
X165952Y383991D01*
X165956Y383925D01*
X165960Y383860D01*
Y383856D01*
Y383849D01*
Y383837D01*
Y383822D01*
X165956Y383799D01*
Y383776D01*
X165948Y383714D01*
X165933Y383649D01*
X165918Y383572D01*
X165891Y383495D01*
X165856Y383418D01*
Y383415D01*
X165852Y383411D01*
X165845Y383399D01*
X165837Y383384D01*
X165814Y383349D01*
X165783Y383303D01*
X165741Y383253D01*
X165691Y383204D01*
X165637Y383154D01*
X165572Y383107D01*
X165564Y383104D01*
X165541Y383092D01*
X165503Y383073D01*
X165457Y383054D01*
X165395Y383034D01*
X165326Y383015D01*
X165249Y383004D01*
X165169Y383000D01*
X165153D01*
X165130Y383004D01*
X165103D01*
X165073Y383008D01*
X165034Y383015D01*
X164992Y383023D01*
X164946Y383034D01*
X164896Y383050D01*
X164842Y383069D01*
X164792Y383092D01*
X164739Y383119D01*
X164685Y383154D01*
X164631Y383192D01*
X164581Y383234D01*
X164535Y383284D01*
X164531Y383288D01*
X164524Y383299D01*
X164512Y383315D01*
X164497Y383338D01*
X164478Y383369D01*
X164458Y383407D01*
X164435Y383453D01*
X164416Y383507D01*
X164393Y383568D01*
X164370Y383637D01*
X164351Y383714D01*
X164332Y383799D01*
X164316Y383891D01*
X164305Y383995D01*
X164297Y384102D01*
X164293Y384221D01*
Y384225D01*
Y384229D01*
Y384240D01*
Y384252D01*
Y384290D01*
X164297Y384340D01*
X164301Y384401D01*
X164309Y384471D01*
X164316Y384547D01*
X164328Y384628D01*
X164339Y384716D01*
X164358Y384805D01*
X164382Y384893D01*
X164408Y384978D01*
X164439Y385066D01*
X164474Y385143D01*
X164516Y385220D01*
X164562Y385285D01*
X164566Y385289D01*
X164574Y385296D01*
X164585Y385312D01*
X164604Y385331D01*
X164631Y385354D01*
X164658Y385377D01*
X164693Y385404D01*
X164731Y385431D01*
X164773Y385457D01*
X164823Y385484D01*
X164873Y385507D01*
X164931Y385530D01*
X164992Y385550D01*
X165057Y385565D01*
X165127Y385573D01*
X165199Y385577D01*
X165226D01*
X165249Y385573D01*
D02*
G37*
G36*
X163890Y383845D02*
Y383841D01*
Y383829D01*
Y383814D01*
Y383791D01*
X163886Y383764D01*
Y383733D01*
X163882Y383664D01*
X163871Y383584D01*
X163859Y383503D01*
X163840Y383422D01*
X163813Y383353D01*
X163809Y383346D01*
X163798Y383326D01*
X163779Y383296D01*
X163756Y383257D01*
X163721Y383211D01*
X163679Y383169D01*
X163625Y383127D01*
X163567Y383088D01*
X163560Y383084D01*
X163537Y383073D01*
X163502Y383061D01*
X163456Y383046D01*
X163399Y383027D01*
X163333Y383015D01*
X163256Y383004D01*
X163176Y383000D01*
X163145D01*
X163122Y383004D01*
X163095Y383008D01*
X163061Y383012D01*
X162988Y383023D01*
X162907Y383046D01*
X162822Y383081D01*
X162780Y383100D01*
X162742Y383127D01*
X162704Y383154D01*
X162669Y383188D01*
Y383192D01*
X162661Y383196D01*
X162654Y383207D01*
X162642Y383223D01*
X162627Y383246D01*
X162615Y383269D01*
X162596Y383299D01*
X162581Y383330D01*
X162565Y383369D01*
X162550Y383411D01*
X162534Y383457D01*
X162523Y383511D01*
X162512Y383564D01*
X162504Y383626D01*
X162500Y383687D01*
Y383756D01*
X162800Y383799D01*
Y383795D01*
Y383787D01*
Y383772D01*
X162803Y383753D01*
Y383730D01*
X162807Y383703D01*
X162819Y383641D01*
X162830Y383572D01*
X162849Y383507D01*
X162876Y383449D01*
X162892Y383422D01*
X162907Y383399D01*
X162911Y383396D01*
X162926Y383384D01*
X162945Y383365D01*
X162976Y383349D01*
X163014Y383330D01*
X163061Y383311D01*
X163114Y383299D01*
X163176Y383296D01*
X163199D01*
X163222Y383299D01*
X163249Y383303D01*
X163283Y383311D01*
X163322Y383319D01*
X163356Y383334D01*
X163391Y383353D01*
X163395Y383357D01*
X163406Y383365D01*
X163422Y383376D01*
X163441Y383396D01*
X163464Y383415D01*
X163483Y383442D01*
X163502Y383472D01*
X163518Y383507D01*
Y383511D01*
X163525Y383526D01*
X163529Y383549D01*
X163537Y383584D01*
X163544Y383630D01*
X163548Y383683D01*
X163556Y383749D01*
Y383826D01*
Y385565D01*
X163890D01*
Y383845D01*
D02*
G37*
G36*
X136886Y428496D02*
X136909D01*
X136940Y428492D01*
X137009Y428481D01*
X137085Y428462D01*
X137166Y428431D01*
X137243Y428393D01*
X137320Y428339D01*
X137324Y428335D01*
X137327Y428331D01*
X137350Y428308D01*
X137381Y428270D01*
X137420Y428220D01*
X137458Y428154D01*
X137493Y428074D01*
X137523Y427982D01*
X137542Y427874D01*
X137247Y427851D01*
Y427855D01*
Y427859D01*
X137243Y427870D01*
X137239Y427886D01*
X137231Y427924D01*
X137216Y427966D01*
X137197Y428016D01*
X137174Y428066D01*
X137143Y428116D01*
X137105Y428154D01*
X137101Y428158D01*
X137085Y428170D01*
X137062Y428185D01*
X137028Y428200D01*
X136989Y428216D01*
X136943Y428231D01*
X136890Y428243D01*
X136828Y428247D01*
X136805D01*
X136778Y428243D01*
X136744Y428239D01*
X136705Y428231D01*
X136663Y428220D01*
X136621Y428204D01*
X136579Y428181D01*
X136575Y428177D01*
X136559Y428170D01*
X136540Y428154D01*
X136517Y428135D01*
X136486Y428112D01*
X136460Y428082D01*
X136429Y428047D01*
X136402Y428009D01*
X136398Y428005D01*
X136390Y427989D01*
X136379Y427962D01*
X136360Y427928D01*
X136344Y427886D01*
X136325Y427836D01*
X136306Y427778D01*
X136287Y427713D01*
Y427709D01*
X136283Y427705D01*
Y427694D01*
X136279Y427682D01*
X136271Y427644D01*
X136264Y427594D01*
X136256Y427536D01*
X136248Y427475D01*
X136241Y427406D01*
Y427333D01*
Y427329D01*
Y427317D01*
Y427298D01*
Y427271D01*
X136244Y427279D01*
X136260Y427294D01*
X136279Y427325D01*
X136310Y427356D01*
X136344Y427394D01*
X136390Y427436D01*
X136440Y427475D01*
X136498Y427513D01*
X136506Y427517D01*
X136525Y427528D01*
X136559Y427540D01*
X136602Y427555D01*
X136652Y427575D01*
X136709Y427586D01*
X136774Y427598D01*
X136844Y427601D01*
X136874D01*
X136897Y427598D01*
X136924Y427594D01*
X136955Y427590D01*
X137028Y427575D01*
X137112Y427548D01*
X137155Y427528D01*
X137201Y427505D01*
X137243Y427479D01*
X137289Y427448D01*
X137331Y427413D01*
X137373Y427375D01*
X137377Y427371D01*
X137381Y427363D01*
X137393Y427352D01*
X137408Y427333D01*
X137423Y427310D01*
X137443Y427283D01*
X137462Y427252D01*
X137481Y427214D01*
X137500Y427175D01*
X137519Y427129D01*
X137539Y427079D01*
X137554Y427026D01*
X137569Y426968D01*
X137581Y426910D01*
X137585Y426845D01*
X137589Y426776D01*
Y426772D01*
Y426760D01*
Y426737D01*
X137585Y426711D01*
X137581Y426680D01*
X137577Y426642D01*
X137569Y426599D01*
X137562Y426553D01*
X137535Y426457D01*
X137516Y426403D01*
X137493Y426354D01*
X137469Y426300D01*
X137439Y426250D01*
X137404Y426204D01*
X137366Y426158D01*
X137362Y426154D01*
X137354Y426146D01*
X137343Y426135D01*
X137324Y426119D01*
X137304Y426104D01*
X137277Y426085D01*
X137247Y426062D01*
X137208Y426039D01*
X137170Y426019D01*
X137128Y425996D01*
X137032Y425958D01*
X136978Y425946D01*
X136920Y425935D01*
X136859Y425927D01*
X136797Y425923D01*
X136774D01*
X136755Y425927D01*
X136736D01*
X136709Y425931D01*
X136648Y425939D01*
X136579Y425958D01*
X136506Y425981D01*
X136425Y426012D01*
X136348Y426058D01*
X136344D01*
X136340Y426065D01*
X136329Y426073D01*
X136314Y426081D01*
X136279Y426112D01*
X136233Y426154D01*
X136183Y426211D01*
X136129Y426273D01*
X136079Y426350D01*
X136037Y426438D01*
Y426442D01*
X136033Y426449D01*
X136026Y426465D01*
X136022Y426484D01*
X136010Y426507D01*
X136003Y426538D01*
X135995Y426576D01*
X135983Y426618D01*
X135972Y426664D01*
X135964Y426718D01*
X135953Y426776D01*
X135945Y426837D01*
X135941Y426906D01*
X135933Y426979D01*
X135930Y427060D01*
Y427144D01*
Y427148D01*
Y427168D01*
Y427191D01*
Y427225D01*
X135933Y427264D01*
Y427314D01*
X135937Y427363D01*
X135941Y427421D01*
X135957Y427544D01*
X135976Y427674D01*
X136003Y427801D01*
X136018Y427859D01*
X136037Y427916D01*
Y427920D01*
X136041Y427928D01*
X136049Y427943D01*
X136056Y427962D01*
X136068Y427989D01*
X136079Y428016D01*
X136114Y428078D01*
X136160Y428151D01*
X136214Y428224D01*
X136275Y428293D01*
X136348Y428354D01*
X136352D01*
X136356Y428362D01*
X136367Y428366D01*
X136387Y428377D01*
X136406Y428389D01*
X136429Y428400D01*
X136486Y428427D01*
X136559Y428454D01*
X136640Y428477D01*
X136736Y428492D01*
X136836Y428500D01*
X136863D01*
X136886Y428496D01*
D02*
G37*
G36*
X140000Y425935D02*
X138829D01*
X138798Y425939D01*
X138767D01*
X138691Y425943D01*
X138610Y425950D01*
X138525Y425966D01*
X138445Y425981D01*
X138406Y425992D01*
X138372Y426004D01*
X138368D01*
X138364Y426008D01*
X138341Y426016D01*
X138310Y426035D01*
X138272Y426062D01*
X138226Y426092D01*
X138180Y426135D01*
X138134Y426185D01*
X138092Y426246D01*
X138088Y426254D01*
X138076Y426277D01*
X138057Y426311D01*
X138038Y426357D01*
X138019Y426415D01*
X137999Y426480D01*
X137988Y426549D01*
X137984Y426626D01*
Y426630D01*
Y426638D01*
Y426653D01*
X137988Y426672D01*
Y426695D01*
X137992Y426722D01*
X138007Y426784D01*
X138026Y426857D01*
X138057Y426930D01*
X138103Y427006D01*
X138130Y427045D01*
X138161Y427079D01*
X138168Y427087D01*
X138180Y427095D01*
X138191Y427110D01*
X138211Y427121D01*
X138234Y427141D01*
X138260Y427156D01*
X138291Y427175D01*
X138326Y427194D01*
X138368Y427214D01*
X138410Y427233D01*
X138460Y427252D01*
X138510Y427271D01*
X138568Y427287D01*
X138629Y427298D01*
X138694Y427310D01*
X138687Y427314D01*
X138671Y427321D01*
X138648Y427333D01*
X138621Y427348D01*
X138556Y427390D01*
X138522Y427413D01*
X138495Y427436D01*
X138487Y427444D01*
X138468Y427459D01*
X138441Y427490D01*
X138406Y427528D01*
X138364Y427578D01*
X138318Y427636D01*
X138268Y427701D01*
X138218Y427774D01*
X137780Y428458D01*
X138199D01*
X138533Y427936D01*
Y427932D01*
X138541Y427924D01*
X138549Y427913D01*
X138556Y427897D01*
X138583Y427859D01*
X138618Y427809D01*
X138656Y427751D01*
X138698Y427694D01*
X138737Y427640D01*
X138775Y427590D01*
X138779Y427586D01*
X138790Y427571D01*
X138810Y427548D01*
X138829Y427521D01*
X138886Y427467D01*
X138913Y427440D01*
X138944Y427421D01*
X138948Y427417D01*
X138955Y427413D01*
X138971Y427406D01*
X138990Y427394D01*
X139036Y427371D01*
X139094Y427352D01*
X139098D01*
X139105Y427348D01*
X139121D01*
X139140Y427344D01*
X139167Y427340D01*
X139198D01*
X139236Y427337D01*
X139666D01*
Y428458D01*
X140000D01*
Y425935D01*
D02*
G37*
G36*
X108890Y406845D02*
Y406841D01*
Y406829D01*
Y406814D01*
Y406791D01*
X108886Y406764D01*
Y406733D01*
X108882Y406664D01*
X108871Y406584D01*
X108859Y406503D01*
X108840Y406422D01*
X108813Y406353D01*
X108809Y406346D01*
X108798Y406326D01*
X108779Y406296D01*
X108756Y406257D01*
X108721Y406211D01*
X108679Y406169D01*
X108625Y406127D01*
X108568Y406088D01*
X108560Y406084D01*
X108537Y406073D01*
X108502Y406061D01*
X108456Y406046D01*
X108398Y406027D01*
X108333Y406015D01*
X108256Y406004D01*
X108176Y406000D01*
X108145D01*
X108122Y406004D01*
X108095Y406008D01*
X108061Y406011D01*
X107988Y406023D01*
X107907Y406046D01*
X107823Y406081D01*
X107780Y406100D01*
X107742Y406127D01*
X107703Y406153D01*
X107669Y406188D01*
Y406192D01*
X107661Y406196D01*
X107653Y406207D01*
X107642Y406223D01*
X107627Y406246D01*
X107615Y406269D01*
X107596Y406299D01*
X107581Y406330D01*
X107565Y406369D01*
X107550Y406411D01*
X107535Y406457D01*
X107523Y406511D01*
X107511Y406564D01*
X107504Y406626D01*
X107500Y406687D01*
Y406756D01*
X107799Y406799D01*
Y406795D01*
Y406787D01*
Y406772D01*
X107803Y406753D01*
Y406730D01*
X107807Y406703D01*
X107819Y406641D01*
X107830Y406572D01*
X107849Y406507D01*
X107876Y406449D01*
X107892Y406422D01*
X107907Y406399D01*
X107911Y406395D01*
X107926Y406384D01*
X107945Y406365D01*
X107976Y406349D01*
X108015Y406330D01*
X108061Y406311D01*
X108114Y406299D01*
X108176Y406296D01*
X108199D01*
X108222Y406299D01*
X108249Y406303D01*
X108283Y406311D01*
X108322Y406319D01*
X108356Y406334D01*
X108391Y406353D01*
X108395Y406357D01*
X108406Y406365D01*
X108422Y406376D01*
X108441Y406395D01*
X108464Y406415D01*
X108483Y406442D01*
X108502Y406472D01*
X108518Y406507D01*
Y406511D01*
X108525Y406526D01*
X108529Y406549D01*
X108537Y406584D01*
X108544Y406630D01*
X108548Y406683D01*
X108556Y406749D01*
Y406826D01*
Y408565D01*
X108890D01*
Y406845D01*
D02*
G37*
G36*
X110960Y408292D02*
X110956Y408289D01*
X110948Y408281D01*
X110937Y408265D01*
X110918Y408246D01*
X110898Y408219D01*
X110872Y408189D01*
X110841Y408150D01*
X110810Y408112D01*
X110775Y408066D01*
X110737Y408012D01*
X110695Y407958D01*
X110656Y407897D01*
X110614Y407832D01*
X110568Y407762D01*
X110526Y407686D01*
X110480Y407609D01*
X110476Y407605D01*
X110468Y407590D01*
X110457Y407567D01*
X110441Y407536D01*
X110422Y407498D01*
X110399Y407451D01*
X110372Y407398D01*
X110345Y407340D01*
X110319Y407279D01*
X110288Y407209D01*
X110257Y407137D01*
X110226Y407060D01*
X110169Y406902D01*
X110115Y406733D01*
Y406730D01*
X110111Y406718D01*
X110107Y406703D01*
X110100Y406680D01*
X110092Y406649D01*
X110084Y406614D01*
X110077Y406572D01*
X110065Y406530D01*
X110057Y406480D01*
X110046Y406426D01*
X110027Y406311D01*
X110011Y406180D01*
X110000Y406042D01*
X109681D01*
Y406046D01*
Y406058D01*
Y406073D01*
X109685Y406096D01*
Y406123D01*
X109689Y406157D01*
X109693Y406200D01*
X109696Y406242D01*
X109704Y406292D01*
X109712Y406349D01*
X109720Y406407D01*
X109731Y406468D01*
X109742Y406538D01*
X109758Y406607D01*
X109796Y406760D01*
Y406764D01*
X109800Y406779D01*
X109808Y406803D01*
X109816Y406833D01*
X109827Y406872D01*
X109842Y406914D01*
X109858Y406964D01*
X109877Y407021D01*
X109900Y407079D01*
X109923Y407144D01*
X109977Y407282D01*
X110042Y407428D01*
X110115Y407574D01*
X110119Y407578D01*
X110126Y407594D01*
X110138Y407613D01*
X110153Y407640D01*
X110173Y407674D01*
X110196Y407713D01*
X110222Y407755D01*
X110249Y407805D01*
X110319Y407908D01*
X110395Y408020D01*
X110476Y408131D01*
X110564Y408239D01*
X109328D01*
Y408534D01*
X110960D01*
Y408292D01*
D02*
G37*
G36*
X129958Y408268D02*
X127984D01*
X127988Y408264D01*
X128003Y408249D01*
X128022Y408222D01*
X128049Y408187D01*
X128084Y408145D01*
X128118Y408095D01*
X128161Y408037D01*
X128199Y407972D01*
Y407968D01*
X128203Y407964D01*
X128218Y407941D01*
X128237Y407907D01*
X128261Y407865D01*
X128287Y407815D01*
X128310Y407761D01*
X128337Y407703D01*
X128360Y407650D01*
X128057D01*
Y407653D01*
X128053Y407661D01*
X128045Y407676D01*
X128034Y407692D01*
X128022Y407715D01*
X128011Y407742D01*
X127976Y407803D01*
X127934Y407872D01*
X127884Y407949D01*
X127827Y408026D01*
X127765Y408099D01*
X127761Y408103D01*
X127758Y408107D01*
X127734Y408130D01*
X127700Y408164D01*
X127658Y408206D01*
X127604Y408252D01*
X127546Y408298D01*
X127485Y408341D01*
X127423Y408375D01*
Y408579D01*
X129958D01*
Y408268D01*
D02*
G37*
G36*
X128990Y406978D02*
X129025D01*
X129067Y406974D01*
X129113Y406970D01*
X129209Y406958D01*
X129309Y406943D01*
X129409Y406924D01*
X129497Y406893D01*
X129501D01*
X129508Y406889D01*
X129520Y406885D01*
X129535Y406878D01*
X129574Y406855D01*
X129628Y406824D01*
X129685Y406782D01*
X129747Y406728D01*
X129804Y406659D01*
X129862Y406582D01*
Y406578D01*
X129869Y406570D01*
X129873Y406559D01*
X129885Y406540D01*
X129893Y406521D01*
X129904Y406494D01*
X129919Y406459D01*
X129931Y406425D01*
X129942Y406386D01*
X129958Y406340D01*
X129969Y406294D01*
X129977Y406240D01*
X129992Y406125D01*
X130000Y405995D01*
Y405960D01*
X129996Y405937D01*
Y405906D01*
X129992Y405872D01*
X129989Y405833D01*
X129985Y405791D01*
X129969Y405699D01*
X129950Y405603D01*
X129919Y405503D01*
X129881Y405415D01*
Y405411D01*
X129873Y405403D01*
X129869Y405396D01*
X129858Y405380D01*
X129831Y405338D01*
X129789Y405292D01*
X129739Y405238D01*
X129681Y405188D01*
X129608Y405138D01*
X129528Y405096D01*
X129524D01*
X129516Y405092D01*
X129505Y405088D01*
X129485Y405081D01*
X129462Y405073D01*
X129432Y405065D01*
X129397Y405057D01*
X129359Y405050D01*
X129316Y405038D01*
X129270Y405031D01*
X129217Y405023D01*
X129163Y405015D01*
X129102Y405008D01*
X129036Y405004D01*
X128967Y405000D01*
X128894D01*
X127435D01*
Y405334D01*
X128894D01*
X128898D01*
X128910D01*
X128925D01*
X128948D01*
X128975D01*
X129006Y405338D01*
X129078Y405342D01*
X129155Y405349D01*
X129236Y405357D01*
X129313Y405372D01*
X129347Y405380D01*
X129378Y405392D01*
X129386Y405396D01*
X129405Y405403D01*
X129432Y405418D01*
X129466Y405442D01*
X129505Y405468D01*
X129547Y405507D01*
X129585Y405549D01*
X129620Y405603D01*
X129624Y405611D01*
X129631Y405630D01*
X129647Y405660D01*
X129658Y405703D01*
X129674Y405756D01*
X129689Y405818D01*
X129697Y405887D01*
X129701Y405964D01*
Y405998D01*
X129697Y406025D01*
Y406056D01*
X129693Y406090D01*
X129681Y406167D01*
X129658Y406256D01*
X129631Y406340D01*
X129589Y406421D01*
X129566Y406459D01*
X129535Y406490D01*
X129532D01*
X129528Y406498D01*
X129516Y406505D01*
X129501Y406513D01*
X129482Y406528D01*
X129459Y406540D01*
X129428Y406555D01*
X129393Y406570D01*
X129351Y406582D01*
X129305Y406597D01*
X129255Y406613D01*
X129194Y406624D01*
X129128Y406632D01*
X129059Y406640D01*
X128979Y406647D01*
X128894D01*
X127435D01*
Y406981D01*
X128894D01*
X128898D01*
X128910D01*
X128929D01*
X128955D01*
X128990Y406978D01*
D02*
G37*
G36*
X166890Y442345D02*
Y442341D01*
Y442329D01*
Y442314D01*
Y442291D01*
X166886Y442264D01*
Y442233D01*
X166882Y442164D01*
X166871Y442084D01*
X166859Y442003D01*
X166840Y441922D01*
X166813Y441853D01*
X166809Y441846D01*
X166798Y441826D01*
X166779Y441796D01*
X166756Y441757D01*
X166721Y441711D01*
X166679Y441669D01*
X166625Y441627D01*
X166568Y441588D01*
X166560Y441584D01*
X166537Y441573D01*
X166502Y441561D01*
X166456Y441546D01*
X166399Y441527D01*
X166333Y441515D01*
X166256Y441504D01*
X166176Y441500D01*
X166145D01*
X166122Y441504D01*
X166095Y441508D01*
X166061Y441511D01*
X165988Y441523D01*
X165907Y441546D01*
X165823Y441581D01*
X165780Y441600D01*
X165742Y441627D01*
X165703Y441653D01*
X165669Y441688D01*
Y441692D01*
X165661Y441696D01*
X165654Y441707D01*
X165642Y441723D01*
X165627Y441746D01*
X165615Y441769D01*
X165596Y441799D01*
X165581Y441830D01*
X165565Y441869D01*
X165550Y441911D01*
X165534Y441957D01*
X165523Y442011D01*
X165512Y442064D01*
X165504Y442126D01*
X165500Y442187D01*
Y442256D01*
X165799Y442299D01*
Y442295D01*
Y442287D01*
Y442272D01*
X165803Y442253D01*
Y442230D01*
X165807Y442203D01*
X165819Y442141D01*
X165830Y442072D01*
X165849Y442007D01*
X165876Y441949D01*
X165892Y441922D01*
X165907Y441899D01*
X165911Y441895D01*
X165926Y441884D01*
X165945Y441865D01*
X165976Y441849D01*
X166015Y441830D01*
X166061Y441811D01*
X166114Y441799D01*
X166176Y441796D01*
X166199D01*
X166222Y441799D01*
X166249Y441803D01*
X166283Y441811D01*
X166322Y441819D01*
X166356Y441834D01*
X166391Y441853D01*
X166395Y441857D01*
X166406Y441865D01*
X166422Y441876D01*
X166441Y441895D01*
X166464Y441915D01*
X166483Y441942D01*
X166502Y441972D01*
X166518Y442007D01*
Y442011D01*
X166525Y442026D01*
X166529Y442049D01*
X166537Y442084D01*
X166544Y442130D01*
X166548Y442183D01*
X166556Y442249D01*
Y442326D01*
Y444065D01*
X166890D01*
Y442345D01*
D02*
G37*
G36*
X168180Y444073D02*
X168211D01*
X168242Y444065D01*
X168318Y444054D01*
X168403Y444031D01*
X168491Y443996D01*
X168537Y443973D01*
X168580Y443950D01*
X168622Y443919D01*
X168660Y443885D01*
X168664Y443881D01*
X168668Y443877D01*
X168679Y443865D01*
X168691Y443850D01*
X168706Y443831D01*
X168726Y443808D01*
X168764Y443754D01*
X168798Y443685D01*
X168833Y443604D01*
X168856Y443516D01*
X168860Y443466D01*
X168864Y443416D01*
Y443408D01*
Y443385D01*
X168860Y443355D01*
X168852Y443312D01*
X168841Y443262D01*
X168825Y443213D01*
X168802Y443159D01*
X168772Y443109D01*
X168768Y443105D01*
X168756Y443090D01*
X168733Y443067D01*
X168702Y443036D01*
X168664Y443005D01*
X168614Y442975D01*
X168557Y442940D01*
X168491Y442913D01*
X168495D01*
X168503Y442909D01*
X168514Y442905D01*
X168530Y442898D01*
X168572Y442878D01*
X168622Y442856D01*
X168679Y442821D01*
X168737Y442779D01*
X168795Y442725D01*
X168845Y442667D01*
X168848Y442660D01*
X168864Y442637D01*
X168883Y442602D01*
X168906Y442552D01*
X168929Y442494D01*
X168948Y442425D01*
X168964Y442349D01*
X168967Y442264D01*
Y442260D01*
Y442249D01*
Y442233D01*
X168964Y442210D01*
X168960Y442183D01*
X168956Y442149D01*
X168941Y442072D01*
X168910Y441988D01*
X168895Y441942D01*
X168871Y441895D01*
X168845Y441849D01*
X168814Y441803D01*
X168779Y441761D01*
X168737Y441719D01*
X168733Y441715D01*
X168726Y441711D01*
X168714Y441700D01*
X168695Y441684D01*
X168672Y441669D01*
X168645Y441650D01*
X168614Y441631D01*
X168576Y441611D01*
X168534Y441588D01*
X168488Y441569D01*
X168438Y441550D01*
X168384Y441535D01*
X168330Y441519D01*
X168269Y441508D01*
X168203Y441504D01*
X168134Y441500D01*
X168100D01*
X168073Y441504D01*
X168042Y441508D01*
X168004Y441511D01*
X167965Y441519D01*
X167919Y441527D01*
X167823Y441554D01*
X167773Y441573D01*
X167723Y441592D01*
X167673Y441619D01*
X167623Y441646D01*
X167577Y441680D01*
X167531Y441719D01*
X167527Y441723D01*
X167520Y441730D01*
X167512Y441742D01*
X167497Y441757D01*
X167478Y441780D01*
X167458Y441807D01*
X167439Y441838D01*
X167420Y441872D01*
X167397Y441911D01*
X167378Y441953D01*
X167339Y442045D01*
X167324Y442099D01*
X167316Y442153D01*
X167309Y442210D01*
X167305Y442272D01*
Y442276D01*
Y442283D01*
Y442295D01*
X167309Y442314D01*
Y442333D01*
X167312Y442360D01*
X167320Y442414D01*
X167335Y442479D01*
X167359Y442548D01*
X167385Y442617D01*
X167428Y442683D01*
Y442687D01*
X167435Y442690D01*
X167451Y442710D01*
X167481Y442740D01*
X167520Y442775D01*
X167570Y442813D01*
X167631Y442852D01*
X167704Y442886D01*
X167785Y442913D01*
X167781D01*
X167777Y442917D01*
X167754Y442925D01*
X167719Y442944D01*
X167677Y442963D01*
X167627Y442994D01*
X167581Y443028D01*
X167535Y443067D01*
X167497Y443113D01*
X167493Y443120D01*
X167481Y443136D01*
X167466Y443163D01*
X167451Y443201D01*
X167435Y443247D01*
X167420Y443301D01*
X167408Y443359D01*
X167405Y443424D01*
Y443428D01*
Y443435D01*
Y443451D01*
X167408Y443470D01*
X167412Y443493D01*
X167416Y443520D01*
X167428Y443585D01*
X167451Y443658D01*
X167489Y443735D01*
X167508Y443777D01*
X167535Y443816D01*
X167566Y443854D01*
X167600Y443888D01*
X167604Y443892D01*
X167608Y443896D01*
X167620Y443908D01*
X167635Y443919D01*
X167658Y443931D01*
X167681Y443950D01*
X167708Y443965D01*
X167743Y443984D01*
X167815Y444019D01*
X167908Y444046D01*
X168011Y444069D01*
X168065Y444073D01*
X168126Y444077D01*
X168157D01*
X168180Y444073D01*
D02*
G37*
G36*
X110673Y430573D02*
X110722Y430565D01*
X110780Y430553D01*
X110845Y430538D01*
X110911Y430515D01*
X110976Y430484D01*
X110980D01*
X110984Y430481D01*
X111007Y430469D01*
X111037Y430450D01*
X111076Y430423D01*
X111118Y430388D01*
X111164Y430346D01*
X111206Y430296D01*
X111245Y430242D01*
X111249Y430235D01*
X111260Y430216D01*
X111275Y430185D01*
X111291Y430147D01*
X111306Y430097D01*
X111322Y430043D01*
X111333Y429985D01*
X111337Y429920D01*
Y429912D01*
Y429893D01*
X111333Y429862D01*
X111325Y429824D01*
X111314Y429778D01*
X111299Y429728D01*
X111279Y429674D01*
X111249Y429624D01*
X111245Y429617D01*
X111233Y429601D01*
X111210Y429578D01*
X111183Y429548D01*
X111145Y429513D01*
X111103Y429478D01*
X111049Y429440D01*
X110987Y429409D01*
X110991D01*
X110999Y429405D01*
X111011D01*
X111026Y429398D01*
X111064Y429386D01*
X111114Y429363D01*
X111168Y429336D01*
X111225Y429298D01*
X111283Y429252D01*
X111333Y429194D01*
X111337Y429186D01*
X111352Y429164D01*
X111372Y429129D01*
X111398Y429083D01*
X111421Y429025D01*
X111441Y428956D01*
X111456Y428875D01*
X111460Y428787D01*
Y428783D01*
Y428772D01*
Y428756D01*
X111456Y428733D01*
X111452Y428703D01*
X111448Y428672D01*
X111441Y428634D01*
X111429Y428595D01*
X111402Y428507D01*
X111383Y428457D01*
X111356Y428411D01*
X111329Y428365D01*
X111299Y428319D01*
X111260Y428273D01*
X111218Y428227D01*
X111214Y428223D01*
X111206Y428215D01*
X111195Y428207D01*
X111176Y428192D01*
X111153Y428173D01*
X111122Y428154D01*
X111087Y428134D01*
X111053Y428115D01*
X111011Y428092D01*
X110964Y428073D01*
X110915Y428054D01*
X110861Y428034D01*
X110803Y428019D01*
X110742Y428012D01*
X110676Y428004D01*
X110611Y428000D01*
X110580D01*
X110557Y428004D01*
X110527Y428008D01*
X110496Y428012D01*
X110458Y428015D01*
X110419Y428023D01*
X110331Y428046D01*
X110239Y428084D01*
X110193Y428104D01*
X110150Y428130D01*
X110104Y428161D01*
X110062Y428196D01*
X110058Y428200D01*
X110054Y428203D01*
X110043Y428215D01*
X110028Y428230D01*
X110012Y428253D01*
X109993Y428276D01*
X109970Y428303D01*
X109951Y428334D01*
X109905Y428411D01*
X109866Y428499D01*
X109832Y428599D01*
X109820Y428653D01*
X109812Y428710D01*
X110124Y428753D01*
Y428749D01*
X110127Y428741D01*
Y428726D01*
X110135Y428710D01*
X110146Y428664D01*
X110166Y428607D01*
X110189Y428545D01*
X110220Y428480D01*
X110258Y428422D01*
X110300Y428372D01*
X110308Y428369D01*
X110323Y428353D01*
X110350Y428338D01*
X110388Y428315D01*
X110431Y428296D01*
X110484Y428276D01*
X110546Y428261D01*
X110611Y428257D01*
X110634D01*
X110650Y428261D01*
X110688Y428265D01*
X110738Y428276D01*
X110799Y428296D01*
X110861Y428319D01*
X110922Y428357D01*
X110980Y428407D01*
X110987Y428415D01*
X111003Y428434D01*
X111026Y428465D01*
X111057Y428511D01*
X111083Y428564D01*
X111107Y428630D01*
X111122Y428703D01*
X111129Y428783D01*
Y428787D01*
Y428791D01*
Y428802D01*
X111126Y428818D01*
X111122Y428856D01*
X111110Y428906D01*
X111095Y428960D01*
X111068Y429021D01*
X111033Y429079D01*
X110987Y429133D01*
X110980Y429140D01*
X110964Y429156D01*
X110934Y429175D01*
X110891Y429202D01*
X110842Y429229D01*
X110780Y429248D01*
X110715Y429263D01*
X110638Y429271D01*
X110603D01*
X110577Y429267D01*
X110546Y429263D01*
X110508Y429259D01*
X110465Y429252D01*
X110419Y429240D01*
X110454Y429513D01*
X110473D01*
X110488Y429509D01*
X110538D01*
X110573Y429513D01*
X110623Y429521D01*
X110676Y429532D01*
X110734Y429551D01*
X110795Y429574D01*
X110857Y429609D01*
X110865Y429613D01*
X110884Y429628D01*
X110907Y429655D01*
X110938Y429690D01*
X110968Y429732D01*
X110991Y429785D01*
X111011Y429851D01*
X111018Y429928D01*
Y429931D01*
Y429935D01*
Y429954D01*
X111011Y429985D01*
X111003Y430027D01*
X110991Y430070D01*
X110968Y430116D01*
X110941Y430166D01*
X110903Y430208D01*
X110899Y430212D01*
X110884Y430227D01*
X110857Y430246D01*
X110822Y430266D01*
X110780Y430289D01*
X110730Y430304D01*
X110673Y430319D01*
X110607Y430323D01*
X110577D01*
X110542Y430315D01*
X110504Y430308D01*
X110454Y430296D01*
X110404Y430273D01*
X110354Y430246D01*
X110304Y430208D01*
X110300Y430204D01*
X110285Y430189D01*
X110266Y430162D01*
X110242Y430124D01*
X110216Y430077D01*
X110193Y430020D01*
X110170Y429951D01*
X110154Y429870D01*
X109843Y429924D01*
Y429928D01*
X109847Y429939D01*
X109851Y429954D01*
X109855Y429974D01*
X109862Y430001D01*
X109870Y430031D01*
X109897Y430100D01*
X109928Y430177D01*
X109974Y430258D01*
X110028Y430335D01*
X110097Y430404D01*
X110100Y430408D01*
X110104Y430411D01*
X110116Y430419D01*
X110135Y430431D01*
X110154Y430442D01*
X110177Y430457D01*
X110235Y430492D01*
X110308Y430523D01*
X110396Y430550D01*
X110492Y430569D01*
X110546Y430577D01*
X110634D01*
X110673Y430573D01*
D02*
G37*
G36*
X109390Y428845D02*
Y428841D01*
Y428829D01*
Y428814D01*
Y428791D01*
X109386Y428764D01*
Y428733D01*
X109382Y428664D01*
X109371Y428584D01*
X109359Y428503D01*
X109340Y428422D01*
X109313Y428353D01*
X109309Y428346D01*
X109298Y428326D01*
X109279Y428296D01*
X109256Y428257D01*
X109221Y428211D01*
X109179Y428169D01*
X109125Y428127D01*
X109067Y428088D01*
X109060Y428084D01*
X109037Y428073D01*
X109002Y428061D01*
X108956Y428046D01*
X108898Y428027D01*
X108833Y428015D01*
X108756Y428004D01*
X108676Y428000D01*
X108645D01*
X108622Y428004D01*
X108595Y428008D01*
X108561Y428012D01*
X108488Y428023D01*
X108407Y428046D01*
X108323Y428081D01*
X108280Y428100D01*
X108242Y428127D01*
X108203Y428154D01*
X108169Y428188D01*
Y428192D01*
X108161Y428196D01*
X108153Y428207D01*
X108142Y428223D01*
X108127Y428246D01*
X108115Y428269D01*
X108096Y428300D01*
X108081Y428330D01*
X108065Y428369D01*
X108050Y428411D01*
X108035Y428457D01*
X108023Y428511D01*
X108011Y428564D01*
X108004Y428626D01*
X108000Y428687D01*
Y428756D01*
X108300Y428799D01*
Y428795D01*
Y428787D01*
Y428772D01*
X108303Y428753D01*
Y428730D01*
X108307Y428703D01*
X108319Y428641D01*
X108330Y428572D01*
X108349Y428507D01*
X108376Y428449D01*
X108392Y428422D01*
X108407Y428399D01*
X108411Y428396D01*
X108426Y428384D01*
X108445Y428365D01*
X108476Y428349D01*
X108514Y428330D01*
X108561Y428311D01*
X108614Y428300D01*
X108676Y428296D01*
X108699D01*
X108722Y428300D01*
X108749Y428303D01*
X108783Y428311D01*
X108822Y428319D01*
X108856Y428334D01*
X108891Y428353D01*
X108895Y428357D01*
X108906Y428365D01*
X108922Y428376D01*
X108941Y428396D01*
X108964Y428415D01*
X108983Y428442D01*
X109002Y428472D01*
X109018Y428507D01*
Y428511D01*
X109025Y428526D01*
X109029Y428549D01*
X109037Y428584D01*
X109044Y428630D01*
X109048Y428684D01*
X109056Y428749D01*
Y428826D01*
Y430565D01*
X109390D01*
Y428845D01*
D02*
G37*
G36*
X130829Y491887D02*
X131171D01*
Y491603D01*
X130829D01*
Y491000D01*
X130518D01*
Y491603D01*
X129424D01*
Y491887D01*
X130576Y493519D01*
X130829D01*
Y491887D01*
D02*
G37*
G36*
X128318Y493519D02*
X128349D01*
X128425Y493515D01*
X128506Y493507D01*
X128590Y493492D01*
X128671Y493477D01*
X128709Y493465D01*
X128744Y493454D01*
X128748D01*
X128752Y493450D01*
X128775Y493442D01*
X128805Y493423D01*
X128844Y493396D01*
X128890Y493365D01*
X128936Y493323D01*
X128982Y493273D01*
X129024Y493212D01*
X129028Y493204D01*
X129040Y493181D01*
X129059Y493147D01*
X129078Y493100D01*
X129097Y493043D01*
X129116Y492978D01*
X129128Y492908D01*
X129132Y492832D01*
Y492828D01*
Y492820D01*
Y492805D01*
X129128Y492786D01*
Y492763D01*
X129124Y492736D01*
X129109Y492674D01*
X129090Y492601D01*
X129059Y492528D01*
X129013Y492451D01*
X128986Y492413D01*
X128955Y492379D01*
X128947Y492371D01*
X128936Y492363D01*
X128925Y492348D01*
X128905Y492336D01*
X128882Y492317D01*
X128855Y492302D01*
X128825Y492282D01*
X128790Y492263D01*
X128748Y492244D01*
X128706Y492225D01*
X128656Y492206D01*
X128606Y492186D01*
X128548Y492171D01*
X128487Y492160D01*
X128421Y492148D01*
X128429Y492144D01*
X128445Y492137D01*
X128468Y492125D01*
X128494Y492110D01*
X128560Y492067D01*
X128594Y492044D01*
X128621Y492021D01*
X128629Y492014D01*
X128648Y491998D01*
X128675Y491968D01*
X128709Y491929D01*
X128752Y491879D01*
X128798Y491822D01*
X128848Y491756D01*
X128898Y491683D01*
X129335Y491000D01*
X128917D01*
X128583Y491522D01*
Y491526D01*
X128575Y491534D01*
X128567Y491545D01*
X128560Y491561D01*
X128533Y491599D01*
X128498Y491649D01*
X128460Y491707D01*
X128418Y491764D01*
X128379Y491818D01*
X128341Y491868D01*
X128337Y491872D01*
X128325Y491887D01*
X128306Y491910D01*
X128287Y491937D01*
X128229Y491991D01*
X128203Y492018D01*
X128172Y492037D01*
X128168Y492041D01*
X128160Y492044D01*
X128145Y492052D01*
X128126Y492064D01*
X128080Y492087D01*
X128022Y492106D01*
X128018D01*
X128011Y492110D01*
X127995D01*
X127976Y492114D01*
X127949Y492117D01*
X127918D01*
X127880Y492121D01*
X127450D01*
Y491000D01*
X127116D01*
Y493523D01*
X128287D01*
X128318Y493519D01*
D02*
G37*
G36*
X106500Y448768D02*
X104526D01*
X104530Y448764D01*
X104545Y448749D01*
X104565Y448722D01*
X104592Y448687D01*
X104626Y448645D01*
X104661Y448595D01*
X104703Y448537D01*
X104741Y448472D01*
Y448468D01*
X104745Y448464D01*
X104761Y448441D01*
X104780Y448407D01*
X104803Y448365D01*
X104830Y448315D01*
X104853Y448261D01*
X104879Y448203D01*
X104903Y448149D01*
X104599D01*
Y448153D01*
X104595Y448161D01*
X104588Y448176D01*
X104576Y448192D01*
X104565Y448215D01*
X104553Y448242D01*
X104519Y448303D01*
X104476Y448372D01*
X104426Y448449D01*
X104369Y448526D01*
X104307Y448599D01*
X104304Y448603D01*
X104300Y448606D01*
X104277Y448630D01*
X104242Y448664D01*
X104200Y448706D01*
X104146Y448752D01*
X104088Y448799D01*
X104027Y448841D01*
X103966Y448875D01*
Y449079D01*
X106500D01*
Y448768D01*
D02*
G37*
G36*
Y447301D02*
X105978Y446967D01*
X105974D01*
X105966Y446959D01*
X105955Y446951D01*
X105939Y446944D01*
X105901Y446917D01*
X105851Y446882D01*
X105793Y446844D01*
X105736Y446802D01*
X105682Y446763D01*
X105632Y446725D01*
X105628Y446721D01*
X105613Y446710D01*
X105590Y446690D01*
X105563Y446671D01*
X105509Y446614D01*
X105482Y446587D01*
X105463Y446556D01*
X105459Y446552D01*
X105456Y446544D01*
X105448Y446529D01*
X105436Y446510D01*
X105413Y446464D01*
X105394Y446406D01*
Y446402D01*
X105390Y446395D01*
Y446379D01*
X105386Y446360D01*
X105383Y446333D01*
Y446303D01*
X105379Y446264D01*
Y445834D01*
X106500D01*
Y445500D01*
X103977D01*
Y446671D01*
X103981Y446702D01*
Y446733D01*
X103985Y446809D01*
X103992Y446890D01*
X104008Y446975D01*
X104023Y447055D01*
X104035Y447093D01*
X104046Y447128D01*
Y447132D01*
X104050Y447136D01*
X104058Y447159D01*
X104077Y447190D01*
X104104Y447228D01*
X104135Y447274D01*
X104177Y447320D01*
X104227Y447366D01*
X104288Y447408D01*
X104296Y447412D01*
X104319Y447424D01*
X104353Y447443D01*
X104400Y447462D01*
X104457Y447481D01*
X104522Y447501D01*
X104592Y447512D01*
X104668Y447516D01*
X104672D01*
X104680D01*
X104695D01*
X104714Y447512D01*
X104737D01*
X104764Y447508D01*
X104826Y447493D01*
X104899Y447474D01*
X104972Y447443D01*
X105049Y447397D01*
X105087Y447370D01*
X105122Y447339D01*
X105129Y447332D01*
X105137Y447320D01*
X105152Y447309D01*
X105164Y447289D01*
X105183Y447266D01*
X105198Y447239D01*
X105218Y447209D01*
X105237Y447174D01*
X105256Y447132D01*
X105275Y447090D01*
X105294Y447040D01*
X105314Y446990D01*
X105329Y446932D01*
X105340Y446871D01*
X105352Y446806D01*
X105356Y446813D01*
X105363Y446829D01*
X105375Y446852D01*
X105390Y446878D01*
X105432Y446944D01*
X105456Y446978D01*
X105479Y447005D01*
X105486Y447013D01*
X105502Y447032D01*
X105532Y447059D01*
X105571Y447093D01*
X105621Y447136D01*
X105678Y447182D01*
X105744Y447232D01*
X105816Y447282D01*
X106500Y447719D01*
Y447301D01*
D02*
G37*
G36*
X108458Y390968D02*
X106484D01*
X106488Y390964D01*
X106503Y390949D01*
X106522Y390922D01*
X106549Y390887D01*
X106584Y390845D01*
X106618Y390795D01*
X106661Y390738D01*
X106699Y390672D01*
Y390668D01*
X106703Y390665D01*
X106718Y390642D01*
X106737Y390607D01*
X106761Y390565D01*
X106787Y390515D01*
X106810Y390461D01*
X106837Y390404D01*
X106860Y390350D01*
X106557D01*
Y390353D01*
X106553Y390361D01*
X106545Y390377D01*
X106534Y390392D01*
X106522Y390415D01*
X106511Y390442D01*
X106476Y390503D01*
X106434Y390572D01*
X106384Y390649D01*
X106327Y390726D01*
X106265Y390799D01*
X106261Y390803D01*
X106257Y390807D01*
X106234Y390830D01*
X106200Y390864D01*
X106158Y390907D01*
X106104Y390953D01*
X106046Y390999D01*
X105985Y391041D01*
X105923Y391075D01*
Y391279D01*
X108458D01*
Y390968D01*
D02*
G37*
G36*
X107678Y389824D02*
X107697Y389816D01*
X107728Y389808D01*
X107759Y389793D01*
X107801Y389778D01*
X107843Y389762D01*
X107889Y389739D01*
X107993Y389689D01*
X108097Y389620D01*
X108197Y389543D01*
X108243Y389497D01*
X108285Y389447D01*
X108289Y389443D01*
X108293Y389436D01*
X108304Y389420D01*
X108320Y389397D01*
X108335Y389370D01*
X108354Y389340D01*
X108373Y389305D01*
X108393Y389263D01*
X108412Y389217D01*
X108431Y389167D01*
X108450Y389109D01*
X108466Y389052D01*
X108492Y388925D01*
X108496Y388856D01*
X108500Y388783D01*
Y388745D01*
X108496Y388714D01*
Y388679D01*
X108492Y388641D01*
X108485Y388595D01*
X108481Y388549D01*
X108458Y388441D01*
X108431Y388330D01*
X108389Y388222D01*
X108366Y388169D01*
X108335Y388119D01*
X108331Y388115D01*
X108327Y388107D01*
X108316Y388096D01*
X108304Y388076D01*
X108266Y388030D01*
X108212Y387977D01*
X108147Y387911D01*
X108062Y387850D01*
X107966Y387785D01*
X107855Y387731D01*
X107851D01*
X107840Y387727D01*
X107824Y387719D01*
X107801Y387712D01*
X107770Y387700D01*
X107736Y387689D01*
X107697Y387677D01*
X107651Y387666D01*
X107605Y387654D01*
X107552Y387643D01*
X107436Y387619D01*
X107314Y387604D01*
X107179Y387600D01*
X107175D01*
X107160D01*
X107141D01*
X107114Y387604D01*
X107079D01*
X107037Y387608D01*
X106995Y387612D01*
X106945Y387619D01*
X106837Y387639D01*
X106722Y387662D01*
X106603Y387700D01*
X106492Y387750D01*
X106488D01*
X106480Y387758D01*
X106465Y387765D01*
X106442Y387777D01*
X106419Y387792D01*
X106392Y387811D01*
X106327Y387861D01*
X106254Y387919D01*
X106181Y387992D01*
X106108Y388080D01*
X106046Y388176D01*
Y388180D01*
X106039Y388188D01*
X106031Y388203D01*
X106023Y388226D01*
X106012Y388249D01*
X105996Y388280D01*
X105985Y388318D01*
X105970Y388357D01*
X105954Y388399D01*
X105943Y388445D01*
X105916Y388549D01*
X105900Y388664D01*
X105893Y388787D01*
Y388825D01*
X105896Y388852D01*
X105900Y388883D01*
X105904Y388921D01*
X105908Y388964D01*
X105916Y389009D01*
X105939Y389109D01*
X105973Y389217D01*
X105996Y389271D01*
X106023Y389324D01*
X106054Y389374D01*
X106088Y389424D01*
X106092Y389428D01*
X106096Y389436D01*
X106108Y389447D01*
X106123Y389467D01*
X106142Y389486D01*
X106169Y389513D01*
X106196Y389540D01*
X106227Y389566D01*
X106265Y389597D01*
X106304Y389624D01*
X106350Y389655D01*
X106400Y389685D01*
X106449Y389712D01*
X106507Y389739D01*
X106630Y389785D01*
X106707Y389455D01*
X106703D01*
X106695Y389451D01*
X106680Y389447D01*
X106661Y389440D01*
X106638Y389428D01*
X106611Y389417D01*
X106553Y389390D01*
X106488Y389355D01*
X106419Y389309D01*
X106357Y389259D01*
X106304Y389198D01*
X106300Y389190D01*
X106284Y389167D01*
X106265Y389132D01*
X106238Y389083D01*
X106215Y389025D01*
X106196Y388952D01*
X106181Y388871D01*
X106177Y388779D01*
Y388752D01*
X106181Y388733D01*
Y388706D01*
X106184Y388679D01*
X106196Y388610D01*
X106211Y388533D01*
X106238Y388453D01*
X106273Y388372D01*
X106319Y388295D01*
Y388292D01*
X106327Y388288D01*
X106346Y388265D01*
X106377Y388230D01*
X106419Y388188D01*
X106473Y388146D01*
X106534Y388100D01*
X106611Y388057D01*
X106695Y388023D01*
X106699D01*
X106707Y388019D01*
X106718Y388015D01*
X106737Y388011D01*
X106757Y388003D01*
X106783Y388000D01*
X106845Y387984D01*
X106918Y387969D01*
X106999Y387957D01*
X107087Y387950D01*
X107179Y387946D01*
X107183D01*
X107194D01*
X107210D01*
X107233D01*
X107260Y387950D01*
X107294D01*
X107329Y387953D01*
X107367Y387957D01*
X107456Y387969D01*
X107552Y387984D01*
X107648Y388007D01*
X107740Y388038D01*
X107744D01*
X107751Y388042D01*
X107763Y388050D01*
X107778Y388057D01*
X107824Y388076D01*
X107874Y388107D01*
X107936Y388149D01*
X107993Y388199D01*
X108051Y388257D01*
X108101Y388326D01*
Y388330D01*
X108105Y388334D01*
X108112Y388345D01*
X108120Y388361D01*
X108135Y388403D01*
X108158Y388457D01*
X108177Y388518D01*
X108197Y388591D01*
X108212Y388672D01*
X108216Y388756D01*
Y388783D01*
X108212Y388802D01*
Y388825D01*
X108208Y388856D01*
X108197Y388921D01*
X108177Y388994D01*
X108147Y389075D01*
X108108Y389152D01*
X108055Y389228D01*
X108051Y389232D01*
X108047Y389236D01*
X108024Y389259D01*
X107985Y389294D01*
X107936Y389336D01*
X107866Y389378D01*
X107786Y389424D01*
X107686Y389463D01*
X107575Y389493D01*
X107659Y389827D01*
X107663D01*
X107678Y389824D01*
D02*
G37*
G36*
X106231Y386521D02*
X108458D01*
Y386187D01*
X106231D01*
Y385358D01*
X105935D01*
Y387351D01*
X106231D01*
Y386521D01*
D02*
G37*
G36*
X108458Y384644D02*
X106476Y383319D01*
X108458D01*
Y383000D01*
X105935D01*
Y383338D01*
X107916Y384666D01*
X105935D01*
Y384985D01*
X108458D01*
Y384644D01*
D02*
G37*
%LPC*%
G36*
X143299Y369058D02*
X142508Y367929D01*
X143299D01*
Y369058D01*
D02*
G37*
G36*
X136856Y442647D02*
X136849D01*
X136829D01*
X136799Y442643D01*
X136760Y442639D01*
X136710Y442631D01*
X136660Y442620D01*
X136607Y442605D01*
X136549Y442582D01*
X136541Y442578D01*
X136526Y442570D01*
X136499Y442555D01*
X136468Y442532D01*
X136430Y442505D01*
X136396Y442474D01*
X136357Y442436D01*
X136326Y442393D01*
X136322Y442390D01*
X136315Y442370D01*
X136303Y442347D01*
X136292Y442317D01*
X136276Y442278D01*
X136265Y442232D01*
X136257Y442186D01*
X136253Y442136D01*
Y442117D01*
X136257Y442102D01*
X136261Y442067D01*
X136273Y442017D01*
X136292Y441967D01*
X136319Y441910D01*
X136357Y441852D01*
X136411Y441798D01*
X136418Y441791D01*
X136442Y441775D01*
X136476Y441752D01*
X136522Y441725D01*
X136584Y441702D01*
X136660Y441679D01*
X136745Y441664D01*
X136841Y441656D01*
X136845D01*
X136852D01*
X136868D01*
X136883Y441660D01*
X136906D01*
X136933Y441664D01*
X136991Y441672D01*
X137056Y441691D01*
X137125Y441714D01*
X137190Y441748D01*
X137252Y441794D01*
X137259Y441802D01*
X137275Y441818D01*
X137302Y441848D01*
X137329Y441890D01*
X137355Y441940D01*
X137382Y442002D01*
X137398Y442071D01*
X137405Y442148D01*
Y442167D01*
X137401Y442182D01*
X137398Y442221D01*
X137386Y442271D01*
X137367Y442324D01*
X137340Y442386D01*
X137302Y442443D01*
X137252Y442501D01*
X137244Y442509D01*
X137225Y442524D01*
X137190Y442547D01*
X137148Y442574D01*
X137091Y442601D01*
X137021Y442624D01*
X136945Y442639D01*
X136856Y442647D01*
D02*
G37*
G36*
X126080Y432148D02*
X126076D01*
X126072D01*
X126053D01*
X126019Y432140D01*
X125980Y432133D01*
X125938Y432117D01*
X125888Y432098D01*
X125842Y432067D01*
X125796Y432029D01*
X125792Y432025D01*
X125777Y432010D01*
X125758Y431983D01*
X125734Y431948D01*
X125715Y431906D01*
X125696Y431856D01*
X125681Y431802D01*
X125677Y431737D01*
Y431706D01*
X125684Y431676D01*
X125692Y431633D01*
X125704Y431587D01*
X125727Y431537D01*
X125754Y431488D01*
X125792Y431441D01*
X125796Y431438D01*
X125811Y431422D01*
X125838Y431407D01*
X125869Y431384D01*
X125907Y431365D01*
X125957Y431345D01*
X126007Y431330D01*
X126065Y431326D01*
X126072D01*
X126095D01*
X126126Y431334D01*
X126168Y431342D01*
X126214Y431353D01*
X126260Y431372D01*
X126310Y431399D01*
X126356Y431438D01*
X126360Y431441D01*
X126372Y431457D01*
X126391Y431484D01*
X126410Y431518D01*
X126433Y431560D01*
X126449Y431614D01*
X126464Y431672D01*
X126468Y431737D01*
Y431768D01*
X126460Y431799D01*
X126453Y431841D01*
X126441Y431887D01*
X126422Y431937D01*
X126395Y431987D01*
X126356Y432033D01*
X126353Y432037D01*
X126337Y432052D01*
X126314Y432071D01*
X126280Y432090D01*
X126241Y432113D01*
X126191Y432129D01*
X126138Y432144D01*
X126080Y432148D01*
D02*
G37*
G36*
X127240Y432252D02*
X127236D01*
X127228D01*
X127217D01*
X127201Y432248D01*
X127163Y432244D01*
X127109Y432232D01*
X127051Y432217D01*
X126990Y432190D01*
X126929Y432152D01*
X126871Y432102D01*
X126863Y432094D01*
X126848Y432075D01*
X126825Y432044D01*
X126794Y432002D01*
X126767Y431948D01*
X126744Y431883D01*
X126729Y431810D01*
X126721Y431729D01*
Y431710D01*
X126725Y431695D01*
X126729Y431653D01*
X126741Y431603D01*
X126756Y431545D01*
X126783Y431484D01*
X126817Y431426D01*
X126867Y431368D01*
X126875Y431361D01*
X126894Y431345D01*
X126925Y431322D01*
X126967Y431299D01*
X127021Y431272D01*
X127082Y431249D01*
X127155Y431234D01*
X127232Y431226D01*
X127236D01*
X127255D01*
X127278Y431230D01*
X127313Y431234D01*
X127351Y431242D01*
X127397Y431253D01*
X127443Y431269D01*
X127489Y431288D01*
X127493Y431292D01*
X127508Y431299D01*
X127532Y431315D01*
X127558Y431334D01*
X127589Y431361D01*
X127624Y431391D01*
X127654Y431430D01*
X127681Y431472D01*
X127685Y431480D01*
X127693Y431495D01*
X127700Y431518D01*
X127712Y431553D01*
X127727Y431595D01*
X127735Y431637D01*
X127743Y431687D01*
X127747Y431741D01*
Y431764D01*
X127743Y431779D01*
X127739Y431818D01*
X127727Y431872D01*
X127712Y431929D01*
X127685Y431990D01*
X127651Y432048D01*
X127604Y432106D01*
X127597Y432113D01*
X127578Y432129D01*
X127547Y432152D01*
X127505Y432179D01*
X127455Y432206D01*
X127390Y432229D01*
X127320Y432244D01*
X127240Y432252D01*
D02*
G37*
G36*
X126126Y430170D02*
X126122D01*
X126118D01*
X126095D01*
X126065Y430163D01*
X126022Y430155D01*
X125976Y430140D01*
X125926Y430117D01*
X125876Y430082D01*
X125830Y430040D01*
X125827Y430032D01*
X125811Y430017D01*
X125792Y429982D01*
X125773Y429940D01*
X125750Y429882D01*
X125734Y429813D01*
X125719Y429729D01*
X125715Y429629D01*
Y428834D01*
X126549D01*
Y429587D01*
X126545Y429629D01*
X126541Y429679D01*
X126537Y429736D01*
X126529Y429798D01*
X126518Y429855D01*
X126502Y429905D01*
X126499Y429913D01*
X126495Y429928D01*
X126483Y429951D01*
X126468Y429978D01*
X126445Y430009D01*
X126418Y430044D01*
X126387Y430074D01*
X126353Y430101D01*
X126349Y430105D01*
X126333Y430113D01*
X126314Y430124D01*
X126284Y430136D01*
X126253Y430147D01*
X126214Y430159D01*
X126172Y430166D01*
X126126Y430170D01*
D02*
G37*
G36*
X152935Y437074D02*
X152928D01*
X152905D01*
X152874Y437066D01*
X152832Y437059D01*
X152786Y437047D01*
X152740Y437028D01*
X152690Y437001D01*
X152644Y436963D01*
X152640Y436959D01*
X152628Y436943D01*
X152609Y436916D01*
X152590Y436882D01*
X152567Y436840D01*
X152551Y436786D01*
X152536Y436728D01*
X152532Y436663D01*
Y436632D01*
X152540Y436602D01*
X152548Y436559D01*
X152559Y436513D01*
X152578Y436463D01*
X152605Y436413D01*
X152644Y436367D01*
X152647Y436364D01*
X152663Y436348D01*
X152686Y436329D01*
X152720Y436310D01*
X152759Y436287D01*
X152809Y436271D01*
X152862Y436256D01*
X152920Y436252D01*
X152924D01*
X152928D01*
X152947D01*
X152981Y436260D01*
X153020Y436268D01*
X153062Y436283D01*
X153112Y436302D01*
X153158Y436333D01*
X153204Y436371D01*
X153208Y436375D01*
X153223Y436390D01*
X153243Y436417D01*
X153266Y436452D01*
X153285Y436494D01*
X153304Y436544D01*
X153319Y436598D01*
X153323Y436663D01*
Y436694D01*
X153315Y436725D01*
X153308Y436767D01*
X153296Y436813D01*
X153273Y436863D01*
X153246Y436913D01*
X153208Y436959D01*
X153204Y436963D01*
X153189Y436978D01*
X153162Y436993D01*
X153131Y437016D01*
X153093Y437036D01*
X153043Y437055D01*
X152993Y437070D01*
X152935Y437074D01*
D02*
G37*
G36*
X151768Y437174D02*
X151764D01*
X151745D01*
X151722Y437170D01*
X151687Y437166D01*
X151649Y437158D01*
X151603Y437147D01*
X151557Y437132D01*
X151511Y437112D01*
X151507Y437109D01*
X151491Y437101D01*
X151468Y437085D01*
X151442Y437066D01*
X151411Y437039D01*
X151376Y437009D01*
X151346Y436970D01*
X151319Y436928D01*
X151315Y436920D01*
X151307Y436905D01*
X151300Y436882D01*
X151288Y436847D01*
X151273Y436805D01*
X151265Y436763D01*
X151257Y436713D01*
X151253Y436659D01*
Y436636D01*
X151257Y436621D01*
X151261Y436582D01*
X151273Y436529D01*
X151288Y436471D01*
X151315Y436410D01*
X151349Y436352D01*
X151395Y436294D01*
X151403Y436287D01*
X151422Y436271D01*
X151453Y436248D01*
X151495Y436222D01*
X151545Y436195D01*
X151611Y436172D01*
X151680Y436156D01*
X151760Y436149D01*
X151764D01*
X151772D01*
X151783D01*
X151799Y436152D01*
X151837Y436156D01*
X151891Y436168D01*
X151948Y436183D01*
X152010Y436210D01*
X152071Y436248D01*
X152129Y436298D01*
X152137Y436306D01*
X152152Y436325D01*
X152175Y436356D01*
X152206Y436398D01*
X152233Y436452D01*
X152256Y436517D01*
X152271Y436590D01*
X152279Y436671D01*
Y436690D01*
X152275Y436705D01*
X152271Y436748D01*
X152260Y436798D01*
X152244Y436855D01*
X152217Y436916D01*
X152183Y436974D01*
X152133Y437032D01*
X152125Y437039D01*
X152106Y437055D01*
X152075Y437078D01*
X152033Y437101D01*
X151979Y437128D01*
X151918Y437151D01*
X151845Y437166D01*
X151768Y437174D01*
D02*
G37*
G36*
X165149Y384405D02*
X165130D01*
X165115Y384401D01*
X165077Y384398D01*
X165027Y384386D01*
X164973Y384367D01*
X164911Y384340D01*
X164854Y384302D01*
X164796Y384252D01*
X164789Y384244D01*
X164773Y384225D01*
X164750Y384190D01*
X164723Y384148D01*
X164696Y384090D01*
X164673Y384021D01*
X164658Y383945D01*
X164650Y383856D01*
Y383849D01*
Y383829D01*
X164654Y383799D01*
X164658Y383760D01*
X164666Y383710D01*
X164677Y383660D01*
X164693Y383607D01*
X164716Y383549D01*
X164719Y383541D01*
X164727Y383526D01*
X164743Y383499D01*
X164766Y383468D01*
X164792Y383430D01*
X164823Y383396D01*
X164862Y383357D01*
X164904Y383326D01*
X164908Y383323D01*
X164927Y383315D01*
X164950Y383303D01*
X164981Y383292D01*
X165019Y383276D01*
X165065Y383265D01*
X165111Y383257D01*
X165161Y383253D01*
X165180D01*
X165196Y383257D01*
X165230Y383261D01*
X165280Y383273D01*
X165330Y383292D01*
X165388Y383319D01*
X165445Y383357D01*
X165499Y383411D01*
X165507Y383418D01*
X165522Y383442D01*
X165545Y383476D01*
X165572Y383522D01*
X165595Y383584D01*
X165618Y383660D01*
X165633Y383745D01*
X165641Y383841D01*
Y383845D01*
Y383852D01*
Y383868D01*
X165637Y383883D01*
Y383906D01*
X165633Y383933D01*
X165626Y383991D01*
X165606Y384056D01*
X165584Y384125D01*
X165549Y384190D01*
X165503Y384252D01*
X165495Y384260D01*
X165480Y384275D01*
X165449Y384302D01*
X165407Y384329D01*
X165357Y384355D01*
X165296Y384382D01*
X165226Y384398D01*
X165149Y384405D01*
D02*
G37*
G36*
X136767Y427329D02*
X136748D01*
X136732Y427325D01*
X136694Y427321D01*
X136644Y427310D01*
X136590Y427290D01*
X136529Y427267D01*
X136471Y427229D01*
X136417Y427179D01*
X136410Y427171D01*
X136394Y427152D01*
X136371Y427118D01*
X136344Y427072D01*
X136321Y427010D01*
X136298Y426941D01*
X136283Y426857D01*
X136275Y426764D01*
Y426760D01*
Y426753D01*
Y426737D01*
X136279Y426718D01*
Y426695D01*
X136283Y426672D01*
X136294Y426611D01*
X136310Y426542D01*
X136337Y426473D01*
X136371Y426403D01*
X136417Y426338D01*
X136425Y426330D01*
X136444Y426315D01*
X136471Y426288D01*
X136513Y426258D01*
X136563Y426231D01*
X136621Y426204D01*
X136686Y426188D01*
X136759Y426181D01*
X136778D01*
X136794Y426185D01*
X136832Y426188D01*
X136882Y426200D01*
X136940Y426223D01*
X136997Y426254D01*
X137059Y426292D01*
X137089Y426319D01*
X137120Y426350D01*
X137128Y426357D01*
X137143Y426380D01*
X137166Y426419D01*
X137193Y426469D01*
X137224Y426530D01*
X137247Y426607D01*
X137262Y426691D01*
X137270Y426787D01*
Y426791D01*
Y426799D01*
Y426810D01*
X137266Y426826D01*
X137262Y426872D01*
X137251Y426926D01*
X137235Y426991D01*
X137208Y427056D01*
X137174Y427118D01*
X137128Y427179D01*
X137120Y427187D01*
X137101Y427202D01*
X137070Y427225D01*
X137028Y427252D01*
X136974Y427283D01*
X136913Y427306D01*
X136844Y427321D01*
X136767Y427329D01*
D02*
G37*
G36*
X139666Y427048D02*
X138913D01*
X138871Y427045D01*
X138821Y427041D01*
X138764Y427037D01*
X138702Y427029D01*
X138645Y427018D01*
X138595Y427002D01*
X138587Y426999D01*
X138572Y426995D01*
X138549Y426983D01*
X138522Y426968D01*
X138491Y426945D01*
X138456Y426918D01*
X138426Y426887D01*
X138399Y426853D01*
X138395Y426849D01*
X138387Y426833D01*
X138376Y426814D01*
X138364Y426784D01*
X138353Y426753D01*
X138341Y426714D01*
X138333Y426672D01*
X138330Y426626D01*
Y426622D01*
Y426618D01*
Y426595D01*
X138337Y426565D01*
X138345Y426522D01*
X138360Y426476D01*
X138383Y426426D01*
X138418Y426376D01*
X138460Y426330D01*
X138468Y426327D01*
X138483Y426311D01*
X138518Y426292D01*
X138560Y426273D01*
X138618Y426250D01*
X138687Y426234D01*
X138771Y426219D01*
X138871Y426215D01*
X139666D01*
Y427048D01*
D02*
G37*
G36*
X168134Y443823D02*
X168104D01*
X168073Y443816D01*
X168031Y443808D01*
X167984Y443796D01*
X167935Y443773D01*
X167885Y443746D01*
X167839Y443708D01*
X167835Y443704D01*
X167819Y443689D01*
X167804Y443662D01*
X167781Y443631D01*
X167762Y443593D01*
X167743Y443543D01*
X167727Y443493D01*
X167723Y443435D01*
Y443428D01*
Y443405D01*
X167731Y443374D01*
X167739Y443332D01*
X167750Y443286D01*
X167769Y443239D01*
X167796Y443189D01*
X167835Y443144D01*
X167839Y443140D01*
X167854Y443128D01*
X167881Y443109D01*
X167915Y443090D01*
X167957Y443067D01*
X168011Y443051D01*
X168069Y443036D01*
X168134Y443032D01*
X168165D01*
X168196Y443040D01*
X168238Y443048D01*
X168284Y443059D01*
X168334Y443078D01*
X168384Y443105D01*
X168430Y443144D01*
X168434Y443147D01*
X168449Y443163D01*
X168468Y443186D01*
X168488Y443220D01*
X168510Y443259D01*
X168526Y443309D01*
X168541Y443362D01*
X168545Y443420D01*
Y443424D01*
Y443428D01*
Y443447D01*
X168537Y443481D01*
X168530Y443520D01*
X168514Y443562D01*
X168495Y443612D01*
X168464Y443658D01*
X168426Y443704D01*
X168422Y443708D01*
X168407Y443723D01*
X168380Y443743D01*
X168345Y443765D01*
X168303Y443785D01*
X168253Y443804D01*
X168200Y443819D01*
X168134Y443823D01*
D02*
G37*
G36*
X168126Y442779D02*
X168107D01*
X168092Y442775D01*
X168050Y442771D01*
X168000Y442760D01*
X167942Y442744D01*
X167881Y442717D01*
X167823Y442683D01*
X167766Y442633D01*
X167758Y442625D01*
X167743Y442606D01*
X167719Y442575D01*
X167696Y442533D01*
X167670Y442479D01*
X167647Y442418D01*
X167631Y442345D01*
X167623Y442268D01*
Y442264D01*
Y442245D01*
X167627Y442222D01*
X167631Y442187D01*
X167639Y442149D01*
X167650Y442103D01*
X167666Y442057D01*
X167685Y442011D01*
X167689Y442007D01*
X167696Y441992D01*
X167712Y441968D01*
X167731Y441942D01*
X167758Y441911D01*
X167789Y441876D01*
X167827Y441846D01*
X167869Y441819D01*
X167877Y441815D01*
X167892Y441807D01*
X167915Y441799D01*
X167950Y441788D01*
X167992Y441773D01*
X168034Y441765D01*
X168084Y441757D01*
X168138Y441753D01*
X168161D01*
X168176Y441757D01*
X168215Y441761D01*
X168269Y441773D01*
X168326Y441788D01*
X168388Y441815D01*
X168445Y441849D01*
X168503Y441895D01*
X168510Y441903D01*
X168526Y441922D01*
X168549Y441953D01*
X168576Y441995D01*
X168603Y442045D01*
X168626Y442110D01*
X168641Y442180D01*
X168649Y442260D01*
Y442264D01*
Y442272D01*
Y442283D01*
X168645Y442299D01*
X168641Y442337D01*
X168630Y442391D01*
X168614Y442448D01*
X168587Y442510D01*
X168549Y442571D01*
X168499Y442629D01*
X168491Y442637D01*
X168472Y442652D01*
X168441Y442675D01*
X168399Y442706D01*
X168345Y442733D01*
X168280Y442756D01*
X168207Y442771D01*
X168126Y442779D01*
D02*
G37*
G36*
X130518Y493016D02*
X129727Y491887D01*
X130518D01*
Y493016D01*
D02*
G37*
G36*
X128245Y493243D02*
X127450D01*
Y492409D01*
X128203D01*
X128245Y492413D01*
X128295Y492417D01*
X128352Y492421D01*
X128414Y492428D01*
X128471Y492440D01*
X128521Y492455D01*
X128529Y492459D01*
X128544Y492463D01*
X128567Y492475D01*
X128594Y492490D01*
X128625Y492513D01*
X128659Y492540D01*
X128690Y492570D01*
X128717Y492605D01*
X128721Y492609D01*
X128729Y492624D01*
X128740Y492643D01*
X128752Y492674D01*
X128763Y492705D01*
X128775Y492743D01*
X128782Y492786D01*
X128786Y492832D01*
Y492836D01*
Y492839D01*
Y492862D01*
X128779Y492893D01*
X128771Y492935D01*
X128755Y492981D01*
X128733Y493031D01*
X128698Y493081D01*
X128656Y493127D01*
X128648Y493131D01*
X128633Y493147D01*
X128598Y493166D01*
X128556Y493185D01*
X128498Y493208D01*
X128429Y493223D01*
X128345Y493239D01*
X128245Y493243D01*
D02*
G37*
G36*
X104668Y447170D02*
X104665D01*
X104661D01*
X104638D01*
X104607Y447163D01*
X104565Y447155D01*
X104519Y447140D01*
X104469Y447117D01*
X104419Y447082D01*
X104373Y447040D01*
X104369Y447032D01*
X104353Y447017D01*
X104334Y446982D01*
X104315Y446940D01*
X104292Y446882D01*
X104277Y446813D01*
X104261Y446729D01*
X104258Y446629D01*
Y445834D01*
X105091D01*
Y446587D01*
X105087Y446629D01*
X105083Y446679D01*
X105079Y446736D01*
X105072Y446798D01*
X105060Y446855D01*
X105045Y446905D01*
X105041Y446913D01*
X105037Y446928D01*
X105025Y446951D01*
X105010Y446978D01*
X104987Y447009D01*
X104960Y447044D01*
X104929Y447074D01*
X104895Y447101D01*
X104891Y447105D01*
X104876Y447113D01*
X104857Y447124D01*
X104826Y447136D01*
X104795Y447147D01*
X104757Y447159D01*
X104714Y447166D01*
X104668Y447170D01*
D02*
G37*
%LPD*%
D12*
X149445Y380630D02*
Y384370D01*
X142555D02*
X149445D01*
X142555Y380630D02*
Y384370D01*
Y380630D02*
X149445D01*
X126425Y425153D02*
X129575D01*
Y431847D01*
X126425D02*
X129575D01*
X126425Y425153D02*
Y431847D01*
X149130Y443445D02*
X152870D01*
X149130Y436555D02*
Y443445D01*
Y436555D02*
X152870D01*
Y443445D01*
X143347Y426925D02*
Y430075D01*
X136653D02*
X143347D01*
X136653Y426925D02*
Y430075D01*
Y426925D02*
X143347D01*
X120633Y395633D02*
X139367D01*
Y414367D01*
X120633D02*
X139367D01*
X120633Y395633D02*
Y414367D01*
X134130Y448945D02*
X137870D01*
X134130Y442055D02*
Y448945D01*
Y442055D02*
X137870D01*
Y448945D01*
X125130Y442055D02*
X128870D01*
Y448945D01*
X125130D02*
X128870D01*
X125130Y442055D02*
Y448945D01*
X123036Y488889D02*
Y493111D01*
Y488889D02*
X131196D01*
Y493111D01*
X123036D02*
X131196D01*
X104389Y441420D02*
X108611D01*
Y449580D01*
X104389D02*
X108611D01*
X104389Y441420D02*
Y449580D01*
X104169Y374732D02*
X112831D01*
Y391268D01*
X104169D02*
X112831D01*
X104169Y374732D02*
Y391268D01*
M02*
