M48
;Layer_Color=9474304
;FILE_FORMAT=2:5
INCH,TZ
;TYPE=PLATED
T1F00S00C0.01181
T2F00S00C0.02362
T5F00S00C0.03543
T6F00S00C0.04016
;TYPE=NON_PLATED
T7F00S00C0.09811
%
T01
X126311Y382311
X125583Y389750
X119500Y391000
X132500
X138000Y391995
X144000Y405000
X144781Y408718
X132000Y416500
X128041Y418541
X119000Y415500
X117000Y405000
X142000Y436000
X141000Y448500
X143000Y452500
X140500Y459500
X152500
X102500Y454000
X159244Y462125
X157000Y476000
X168000Y494000
X152000Y477500
X137000
X131500Y479000
X132000Y472500
X121500Y497000
T02
X108500Y378079
Y387921
T05
X108500Y358500
X118500
X128500
X153500Y359000
X163500
T06
X140500Y367000
X107500Y406000
X108000Y428000
X107500Y463000
X121500Y462500
X179500Y467500
Y457500
Y447500
Y437500
Y427500
Y417500
Y407500
Y397500
Y387500
Y377500
Y367500
Y357500
Y347500
X162500Y383000
X165500Y410500
Y441500
X279500Y437500
Y447500
Y457500
Y467500
Y427500
Y417500
Y407500
Y397500
Y387500
Y377500
Y367500
Y357500
Y347500
Y477500
Y487500
X179500
Y477500
T07
X181154Y333996
X277650
Y518839
X181154
M30
