G04*
G04 #@! TF.GenerationSoftware,Altium Limited,Altium Designer,20.0.2 (26)*
G04*
G04 Layer_Color=255*
%FSLAX25Y25*%
%MOIN*%
G70*
G01*
G75*
%ADD17R,0.01968X0.01968*%
%ADD18R,0.02835X0.02717*%
%ADD19R,0.02362X0.01968*%
%ADD20R,0.01968X0.01968*%
%ADD21R,0.02756X0.02559*%
%ADD22R,0.02165X0.02362*%
%ADD23R,0.01968X0.02362*%
G04:AMPARAMS|DCode=24|XSize=9.42mil|YSize=28.7mil|CornerRadius=4.71mil|HoleSize=0mil|Usage=FLASHONLY|Rotation=90.000|XOffset=0mil|YOffset=0mil|HoleType=Round|Shape=RoundedRectangle|*
%AMROUNDEDRECTD24*
21,1,0.00942,0.01929,0,0,90.0*
21,1,0.00000,0.02870,0,0,90.0*
1,1,0.00942,0.00964,0.00000*
1,1,0.00942,0.00964,0.00000*
1,1,0.00942,-0.00964,0.00000*
1,1,0.00942,-0.00964,0.00000*
%
%ADD24ROUNDEDRECTD24*%
G04:AMPARAMS|DCode=25|XSize=28.7mil|YSize=9.42mil|CornerRadius=4.71mil|HoleSize=0mil|Usage=FLASHONLY|Rotation=90.000|XOffset=0mil|YOffset=0mil|HoleType=Round|Shape=RoundedRectangle|*
%AMROUNDEDRECTD25*
21,1,0.02870,0.00000,0,0,90.0*
21,1,0.01929,0.00942,0,0,90.0*
1,1,0.00942,0.00000,0.00964*
1,1,0.00942,0.00000,-0.00964*
1,1,0.00942,0.00000,-0.00964*
1,1,0.00942,0.00000,0.00964*
%
%ADD25ROUNDEDRECTD25*%
%ADD26R,0.00942X0.02870*%
%ADD27R,0.07087X0.07480*%
%ADD28R,0.01575X0.05315*%
%ADD29R,0.01968X0.01772*%
%ADD30C,0.01181*%
%ADD31R,0.03543X0.05118*%
%ADD32R,0.04331X0.13386*%
%ADD33R,0.01968X0.04724*%
%ADD34R,0.01968X0.01575*%
%ADD35R,0.09449X0.08701*%
%ADD36R,0.02816X0.02648*%
%ADD37R,0.02735X0.02617*%
%ADD38R,0.02648X0.02816*%
%ADD39R,0.04724X0.07087*%
%ADD40R,0.02362X0.06102*%
%ADD41R,0.02362X0.02165*%
%ADD47R,0.11024X0.11024*%
%ADD63C,0.06181*%
%ADD72C,0.04331*%
%ADD73R,0.04331X0.04331*%
%ADD78R,0.05906X0.05906*%
%ADD79C,0.05906*%
%ADD80O,0.04134X0.04921*%
%ADD81O,0.04523X0.07480*%
%ADD82O,0.04523X0.06080*%
%ADD83R,0.07874X0.07874*%
%ADD84C,0.07874*%
%ADD85C,0.09911*%
D17*
X144032Y382500D02*
D03*
X147968D02*
D03*
D18*
X133500Y382311D02*
D03*
Y378689D02*
D03*
X117500Y443689D02*
D03*
D19*
X128000Y430469D02*
D03*
Y426532D02*
D03*
D20*
X151000Y438031D02*
D03*
Y441968D02*
D03*
X136000Y443532D02*
D03*
Y447469D02*
D03*
X127000D02*
D03*
Y443532D02*
D03*
D21*
X163760Y421000D02*
D03*
X167500D02*
D03*
X164500Y473000D02*
D03*
X168240D02*
D03*
X164130Y462000D02*
D03*
X167870D02*
D03*
D22*
X150500Y403173D02*
D03*
Y399827D02*
D03*
X126500Y482000D02*
D03*
Y478653D02*
D03*
D23*
X138031Y428500D02*
D03*
X141969D02*
D03*
D24*
X122462Y401063D02*
D03*
Y403031D02*
D03*
Y405000D02*
D03*
Y406968D02*
D03*
Y408937D02*
D03*
X137538D02*
D03*
Y406968D02*
D03*
Y405000D02*
D03*
Y403031D02*
D03*
Y401063D02*
D03*
D25*
X126063Y412538D02*
D03*
X128032D02*
D03*
X130000D02*
D03*
X131968D02*
D03*
X133937D02*
D03*
Y397462D02*
D03*
X131968D02*
D03*
X130000D02*
D03*
X128032D02*
D03*
D26*
X126063D02*
D03*
D27*
X117472Y333848D02*
D03*
X126528D02*
D03*
D28*
X127118Y344872D02*
D03*
X124559D02*
D03*
X122000D02*
D03*
X119441D02*
D03*
X116882D02*
D03*
D29*
X164024Y451000D02*
D03*
X166976D02*
D03*
X120476Y432500D02*
D03*
X117524D02*
D03*
D30*
X148563Y455453D02*
D03*
Y453484D02*
D03*
Y451516D02*
D03*
Y449547D02*
D03*
X156437D02*
D03*
Y451516D02*
D03*
Y453484D02*
D03*
Y455453D02*
D03*
D31*
X152500Y452500D02*
D03*
D32*
X138492Y489500D02*
D03*
X162508D02*
D03*
D33*
X140504Y472165D02*
D03*
X153496D02*
D03*
D34*
X140504Y468425D02*
D03*
Y466260D02*
D03*
X153496D02*
D03*
Y468425D02*
D03*
D35*
X147000Y470000D02*
D03*
D36*
X129000Y491000D02*
D03*
X125232D02*
D03*
D37*
X117500Y447311D02*
D03*
D38*
X106500Y447384D02*
D03*
Y443616D02*
D03*
D39*
X103913Y490980D02*
D03*
X118087D02*
D03*
D40*
X109031Y475724D02*
D03*
X112969D02*
D03*
D41*
X150000Y414500D02*
D03*
X153347D02*
D03*
D47*
X130000Y405000D02*
D03*
D63*
X140500Y367000D02*
D03*
X165500Y410500D02*
D03*
X162500Y383000D02*
D03*
X107500Y406000D02*
D03*
X165500Y441500D02*
D03*
X121500Y462500D02*
D03*
X107500Y463000D02*
D03*
X108000Y428000D02*
D03*
D72*
X108500Y387921D02*
D03*
D73*
Y378079D02*
D03*
D78*
X128500Y358500D02*
D03*
X163500Y359000D02*
D03*
D79*
X118500Y358500D02*
D03*
X108500D02*
D03*
X153500Y359000D02*
D03*
D80*
X113240Y346152D02*
D03*
X130760D02*
D03*
D81*
X105907Y333848D02*
D03*
D82*
X138093D02*
D03*
D83*
X179500Y487500D02*
D03*
D84*
Y477500D02*
D03*
Y467500D02*
D03*
Y457500D02*
D03*
Y447500D02*
D03*
Y437500D02*
D03*
Y427500D02*
D03*
Y417500D02*
D03*
Y407500D02*
D03*
Y397500D02*
D03*
Y387500D02*
D03*
Y377500D02*
D03*
Y367500D02*
D03*
Y357500D02*
D03*
Y347500D02*
D03*
X279500Y487500D02*
D03*
Y477500D02*
D03*
Y467500D02*
D03*
Y457500D02*
D03*
Y447500D02*
D03*
Y437500D02*
D03*
Y427500D02*
D03*
Y417500D02*
D03*
Y407500D02*
D03*
Y397500D02*
D03*
Y387500D02*
D03*
Y377500D02*
D03*
Y367500D02*
D03*
Y357500D02*
D03*
Y347500D02*
D03*
D85*
X181154Y333996D02*
D03*
X277650D02*
D03*
Y518839D02*
D03*
X181154D02*
D03*
M02*
