G04*
G04 #@! TF.GenerationSoftware,Altium Limited,Altium Designer,20.0.2 (26)*
G04*
G04 Layer_Color=16711935*
%FSLAX25Y25*%
%MOIN*%
G70*
G01*
G75*
%ADD63C,0.06181*%
%ADD64R,0.06706X0.06706*%
%ADD65C,0.06706*%
%ADD66O,0.04934X0.05721*%
%ADD67O,0.05323X0.08280*%
%ADD68O,0.05323X0.06880*%
%ADD69R,0.08674X0.08674*%
%ADD70C,0.08674*%
%ADD71C,0.10711*%
%ADD72C,0.04331*%
%ADD73R,0.04331X0.04331*%
%ADD74C,0.03162*%
D63*
X140500Y367000D02*
D03*
X165500Y410500D02*
D03*
X162500Y383000D02*
D03*
X107500Y406000D02*
D03*
X165500Y441500D02*
D03*
X121500Y462500D02*
D03*
X107500Y463000D02*
D03*
X108000Y428000D02*
D03*
D64*
X128500Y358500D02*
D03*
X163500Y359000D02*
D03*
D65*
X118500Y358500D02*
D03*
X108500D02*
D03*
X153500Y359000D02*
D03*
D66*
X113240Y346152D02*
D03*
X130760D02*
D03*
D67*
X105907Y333848D02*
D03*
D68*
X138093D02*
D03*
D69*
X179500Y487500D02*
D03*
D70*
Y477500D02*
D03*
Y467500D02*
D03*
Y457500D02*
D03*
Y447500D02*
D03*
Y437500D02*
D03*
Y427500D02*
D03*
Y417500D02*
D03*
Y407500D02*
D03*
Y397500D02*
D03*
Y387500D02*
D03*
Y377500D02*
D03*
Y367500D02*
D03*
Y357500D02*
D03*
Y347500D02*
D03*
X279500Y487500D02*
D03*
Y477500D02*
D03*
Y467500D02*
D03*
Y457500D02*
D03*
Y447500D02*
D03*
Y437500D02*
D03*
Y427500D02*
D03*
Y417500D02*
D03*
Y407500D02*
D03*
Y397500D02*
D03*
Y387500D02*
D03*
Y377500D02*
D03*
Y367500D02*
D03*
Y357500D02*
D03*
Y347500D02*
D03*
D71*
X181154Y333996D02*
D03*
X277650D02*
D03*
Y518839D02*
D03*
X181154D02*
D03*
D72*
X108500Y387921D02*
D03*
D73*
Y378079D02*
D03*
D74*
X137000Y477500D02*
D03*
X132000Y472500D02*
D03*
X131500Y479000D02*
D03*
X142000Y436000D02*
D03*
X121500Y497000D02*
D03*
X141000Y448500D02*
D03*
X168000Y494000D02*
D03*
X159244Y462125D02*
D03*
X157000Y476000D02*
D03*
X117000Y405000D02*
D03*
X152000Y477500D02*
D03*
X119000Y415500D02*
D03*
X152500Y459500D02*
D03*
X126311Y382311D02*
D03*
X119500Y391000D02*
D03*
X128041Y418541D02*
D03*
X144781Y408718D02*
D03*
X138000Y391995D02*
D03*
X132500Y391000D02*
D03*
X144000Y405000D02*
D03*
X132000Y416500D02*
D03*
X125583Y389750D02*
D03*
X102500Y454000D02*
D03*
X143000Y452500D02*
D03*
X140500Y459500D02*
D03*
M02*
